<?xml version="1.0" encoding="us-ascii" standalone="no"?><svg xmlns="http://www.w3.org/2000/svg" xmlns:xlink="http://www.w3.org/1999/xlink" contentStyleType="text/css" height="861px" preserveAspectRatio="none" style="width:5732px;height:861px;background:#FFFFFF;" version="1.1" viewBox="0 0 5732 861" width="5732px" zoomAndPan="magnify"><defs/><g><!--class FloorData--><g id="elem_FloorData"><rect codeLine="1" fill="#F1F1F1" height="113.1875" id="FloorData" rx="2.5" ry="2.5" style="stroke:#181818;stroke-width:0.5;" width="207" x="918" y="510.5"/><ellipse cx="982.25" cy="526.5" fill="#ADD1B2" rx="11" ry="11" style="stroke:#181818;stroke-width:1.0;"/><path d="M984.5938,522.1719 C983.6563,521.7344 983.0625,521.5938 982.1875,521.5938 C979.5625,521.5938 977.5625,523.6719 977.5625,526.3906 L977.5625,527.5156 C977.5625,530.0938 979.6719,531.9844 982.5625,531.9844 C983.7813,531.9844 984.9375,531.6875 985.6875,531.1406 C986.2656,530.7344 986.5938,530.2813 986.5938,529.8906 C986.5938,529.4375 986.2031,529.0469 985.7344,529.0469 C985.5156,529.0469 985.3125,529.125 985.125,529.3125 C984.6719,529.7969 984.6719,529.7969 984.4844,529.8906 C984.0625,530.1563 983.375,530.2813 982.6094,530.2813 C980.5625,530.2813 979.2656,529.1875 979.2656,527.4844 L979.2656,526.3906 C979.2656,524.6094 980.5156,523.2969 982.25,523.2969 C982.8281,523.2969 983.4375,523.4531 983.9063,523.7031 C984.3906,523.9844 984.5625,524.2031 984.6563,524.6094 C984.7188,525.0156 984.75,525.1406 984.8906,525.2656 C985.0313,525.4063 985.2656,525.5156 985.4844,525.5156 C985.75,525.5156 986.0156,525.375 986.1875,525.1563 C986.2969,525 986.3281,524.8125 986.3281,524.3906 L986.3281,522.9688 C986.3281,522.5313 986.3125,522.4063 986.2188,522.25 C986.0625,521.9844 985.7813,521.8438 985.4844,521.8438 C985.1875,521.8438 984.9844,521.9375 984.7656,522.25 L984.5938,522.1719 Z " fill="#000000"/><text fill="#000000" font-family="sans-serif" font-size="14" lengthAdjust="spacing" textLength="70" x="1002.75" y="531.3467">FloorData</text><line style="stroke:#181818;stroke-width:0.5;" x1="919" x2="1124" y1="542.5" y2="542.5"/><rect fill="none" height="6" style="stroke:#C82930;stroke-width:1.0;" width="6" x="926" y="553.1484"/><text fill="#000000" font-family="sans-serif" font-size="14" lengthAdjust="spacing" textLength="120" x="938" y="559.4951">floorNumber: int</text><rect fill="none" height="6" style="stroke:#C82930;stroke-width:1.0;" width="6" x="926" y="569.4453"/><text fill="#000000" font-family="sans-serif" font-size="14" lengthAdjust="spacing" textLength="181" x="938" y="575.792">direction: DirectionEnum</text><rect fill="none" height="6" style="stroke:#C82930;stroke-width:1.0;" width="6" x="926" y="585.7422"/><text fill="#000000" font-family="sans-serif" font-size="14" lengthAdjust="spacing" textLength="147" x="938" y="592.0889">destinationFloor: int</text><rect fill="none" height="6" style="stroke:#C82930;stroke-width:1.0;" width="6" x="926" y="602.0391"/><text fill="#000000" font-family="sans-serif" font-size="14" lengthAdjust="spacing" textLength="74" x="938" y="608.3857">time: long</text><line style="stroke:#181818;stroke-width:0.5;" x1="919" x2="1124" y1="615.6875" y2="615.6875"/></g><!--class ThreadMain--><g id="elem_ThreadMain"><rect codeLine="8" fill="#F1F1F1" height="64.2969" id="ThreadMain" rx="2.5" ry="2.5" style="stroke:#181818;stroke-width:0.5;" width="203" x="691" y="15.5"/><ellipse cx="746.75" cy="31.5" fill="#ADD1B2" rx="11" ry="11" style="stroke:#181818;stroke-width:1.0;"/><path d="M749.0938,27.1719 C748.1563,26.7344 747.5625,26.5938 746.6875,26.5938 C744.0625,26.5938 742.0625,28.6719 742.0625,31.3906 L742.0625,32.5156 C742.0625,35.0938 744.1719,36.9844 747.0625,36.9844 C748.2813,36.9844 749.4375,36.6875 750.1875,36.1406 C750.7656,35.7344 751.0938,35.2813 751.0938,34.8906 C751.0938,34.4375 750.7031,34.0469 750.2344,34.0469 C750.0156,34.0469 749.8125,34.125 749.625,34.3125 C749.1719,34.7969 749.1719,34.7969 748.9844,34.8906 C748.5625,35.1563 747.875,35.2813 747.1094,35.2813 C745.0625,35.2813 743.7656,34.1875 743.7656,32.4844 L743.7656,31.3906 C743.7656,29.6094 745.0156,28.2969 746.75,28.2969 C747.3281,28.2969 747.9375,28.4531 748.4063,28.7031 C748.8906,28.9844 749.0625,29.2031 749.1563,29.6094 C749.2188,30.0156 749.25,30.1406 749.3906,30.2656 C749.5313,30.4063 749.7656,30.5156 749.9844,30.5156 C750.25,30.5156 750.5156,30.375 750.6875,30.1563 C750.7969,30 750.8281,29.8125 750.8281,29.3906 L750.8281,27.9688 C750.8281,27.5313 750.8125,27.4063 750.7188,27.25 C750.5625,26.9844 750.2813,26.8438 749.9844,26.8438 C749.6875,26.8438 749.4844,26.9375 749.2656,27.25 L749.0938,27.1719 Z " fill="#000000"/><text fill="#000000" font-family="sans-serif" font-size="14" lengthAdjust="spacing" textLength="83" x="767.25" y="36.3467">ThreadMain</text><line style="stroke:#181818;stroke-width:0.5;" x1="692" x2="893" y1="47.5" y2="47.5"/><line style="stroke:#181818;stroke-width:0.5;" x1="692" x2="893" y1="55.5" y2="55.5"/><ellipse cx="702" cy="69.1484" fill="#84BE84" rx="3" ry="3" style="stroke:#038048;stroke-width:1.0;"/><text fill="#000000" font-family="sans-serif" font-size="14" lengthAdjust="spacing" textLength="177" x="711" y="72.4951">main(args: String[]): void</text></g><!--class Synchronizer--><g id="elem_Synchronizer"><rect codeLine="21" fill="#F1F1F1" height="259.8594" id="Synchronizer" rx="2.5" ry="2.5" style="stroke:#181818;stroke-width:0.5;" width="395" x="352" y="437"/><ellipse cx="498.25" cy="453" fill="#ADD1B2" rx="11" ry="11" style="stroke:#181818;stroke-width:1.0;"/><path d="M500.5938,448.6719 C499.6563,448.2344 499.0625,448.0938 498.1875,448.0938 C495.5625,448.0938 493.5625,450.1719 493.5625,452.8906 L493.5625,454.0156 C493.5625,456.5938 495.6719,458.4844 498.5625,458.4844 C499.7813,458.4844 500.9375,458.1875 501.6875,457.6406 C502.2656,457.2344 502.5938,456.7813 502.5938,456.3906 C502.5938,455.9375 502.2031,455.5469 501.7344,455.5469 C501.5156,455.5469 501.3125,455.625 501.125,455.8125 C500.6719,456.2969 500.6719,456.2969 500.4844,456.3906 C500.0625,456.6563 499.375,456.7813 498.6094,456.7813 C496.5625,456.7813 495.2656,455.6875 495.2656,453.9844 L495.2656,452.8906 C495.2656,451.1094 496.5156,449.7969 498.25,449.7969 C498.8281,449.7969 499.4375,449.9531 499.9063,450.2031 C500.3906,450.4844 500.5625,450.7031 500.6563,451.1094 C500.7188,451.5156 500.75,451.6406 500.8906,451.7656 C501.0313,451.9063 501.2656,452.0156 501.4844,452.0156 C501.75,452.0156 502.0156,451.875 502.1875,451.6563 C502.2969,451.5 502.3281,451.3125 502.3281,450.8906 L502.3281,449.4688 C502.3281,449.0313 502.3125,448.9063 502.2188,448.75 C502.0625,448.4844 501.7813,448.3438 501.4844,448.3438 C501.1875,448.3438 500.9844,448.4375 500.7656,448.75 L500.5938,448.6719 Z " fill="#000000"/><text fill="#000000" font-family="sans-serif" font-size="14" lengthAdjust="spacing" textLength="94" x="518.75" y="457.8467">Synchronizer</text><line style="stroke:#181818;stroke-width:0.5;" x1="353" x2="746" y1="469" y2="469"/><rect fill="none" height="6" style="stroke:#C82930;stroke-width:1.0;" width="6" x="360" y="479.6484"/><text fill="#000000" font-family="sans-serif" font-size="14" lengthAdjust="spacing" textLength="118" x="372" y="485.9951">currentFloor: int</text><rect fill="none" height="6" style="stroke:#C82930;stroke-width:1.0;" width="6" x="360" y="495.9453"/><text fill="#000000" font-family="sans-serif" font-size="14" lengthAdjust="spacing" textLength="298" x="372" y="502.292">floorCommandQueue: Queue&lt;FloorData&gt;</text><rect fill="none" height="6" style="stroke:#C82930;stroke-width:1.0;" width="6" x="360" y="512.2422"/><text fill="#000000" font-family="sans-serif" font-size="14" lengthAdjust="spacing" textLength="333" x="372" y="518.5889">schedulerCommandQueue: Queue&lt;FloorData&gt;</text><rect fill="none" height="6" style="stroke:#C82930;stroke-width:1.0;" width="6" x="360" y="528.5391"/><text fill="#000000" font-family="sans-serif" font-size="14" lengthAdjust="spacing" textLength="198" x="372" y="534.8857">destinationSensor: boolean</text><line style="stroke:#181818;stroke-width:0.5;" x1="353" x2="746" y1="542.1875" y2="542.1875"/><ellipse cx="363" cy="555.8359" fill="#84BE84" rx="3" ry="3" style="stroke:#038048;stroke-width:1.0;"/><text fill="#000000" font-family="sans-serif" font-size="14" lengthAdjust="spacing" textLength="334" x="372" y="559.1826">addFloorCommand(command: FloorData): void</text><ellipse cx="363" cy="572.1328" fill="#84BE84" rx="3" ry="3" style="stroke:#038048;stroke-width:1.0;"/><text fill="#000000" font-family="sans-serif" font-size="14" lengthAdjust="spacing" textLength="257" x="372" y="575.4795">getNextFloorCommand(): FloorData</text><ellipse cx="363" cy="588.4297" fill="#84BE84" rx="3" ry="3" style="stroke:#038048;stroke-width:1.0;"/><text fill="#000000" font-family="sans-serif" font-size="14" lengthAdjust="spacing" textLength="369" x="372" y="591.7764">addSchedulerCommand(command: FloorData): void</text><ellipse cx="363" cy="604.7266" fill="#84BE84" rx="3" ry="3" style="stroke:#038048;stroke-width:1.0;"/><text fill="#000000" font-family="sans-serif" font-size="14" lengthAdjust="spacing" textLength="292" x="372" y="608.0732">getNextSchedulerCommand(): FloorData</text><ellipse cx="363" cy="621.0234" fill="#84BE84" rx="3" ry="3" style="stroke:#038048;stroke-width:1.0;"/><text fill="#000000" font-family="sans-serif" font-size="14" lengthAdjust="spacing" textLength="217" x="372" y="624.3701">hasFloorCommands(): boolean</text><ellipse cx="363" cy="637.3203" fill="#84BE84" rx="3" ry="3" style="stroke:#038048;stroke-width:1.0;"/><text fill="#000000" font-family="sans-serif" font-size="14" lengthAdjust="spacing" textLength="252" x="372" y="640.667">hasSchedulerCommands(): boolean</text><ellipse cx="363" cy="653.6172" fill="#84BE84" rx="3" ry="3" style="stroke:#038048;stroke-width:1.0;"/><text fill="#000000" font-family="sans-serif" font-size="14" lengthAdjust="spacing" textLength="348" x="372" y="656.9639">setDestinationSensor(hasArrived: boolean): void</text><ellipse cx="363" cy="669.9141" fill="#84BE84" rx="3" ry="3" style="stroke:#038048;stroke-width:1.0;"/><text fill="#000000" font-family="sans-serif" font-size="14" lengthAdjust="spacing" textLength="235" x="372" y="673.2607">getDestinationSensor(): boolean</text><ellipse cx="363" cy="686.2109" fill="#84BE84" rx="3" ry="3" style="stroke:#038048;stroke-width:1.0;"/><text fill="#000000" font-family="sans-serif" font-size="14" lengthAdjust="spacing" textLength="155" x="372" y="689.5576">getCurrentFloor(): int</text></g><!--class FloorSubsystem--><g id="elem_FloorSubsystem"><rect codeLine="37" fill="#F1F1F1" height="162.0781" id="FloorSubsystem" rx="2.5" ry="2.5" style="stroke:#181818;stroke-width:0.5;" width="471" x="317" y="181.5"/><ellipse cx="490.75" cy="197.5" fill="#ADD1B2" rx="11" ry="11" style="stroke:#181818;stroke-width:1.0;"/><path d="M493.0938,193.1719 C492.1563,192.7344 491.5625,192.5938 490.6875,192.5938 C488.0625,192.5938 486.0625,194.6719 486.0625,197.3906 L486.0625,198.5156 C486.0625,201.0938 488.1719,202.9844 491.0625,202.9844 C492.2813,202.9844 493.4375,202.6875 494.1875,202.1406 C494.7656,201.7344 495.0938,201.2813 495.0938,200.8906 C495.0938,200.4375 494.7031,200.0469 494.2344,200.0469 C494.0156,200.0469 493.8125,200.125 493.625,200.3125 C493.1719,200.7969 493.1719,200.7969 492.9844,200.8906 C492.5625,201.1563 491.875,201.2813 491.1094,201.2813 C489.0625,201.2813 487.7656,200.1875 487.7656,198.4844 L487.7656,197.3906 C487.7656,195.6094 489.0156,194.2969 490.75,194.2969 C491.3281,194.2969 491.9375,194.4531 492.4063,194.7031 C492.8906,194.9844 493.0625,195.2031 493.1563,195.6094 C493.2188,196.0156 493.25,196.1406 493.3906,196.2656 C493.5313,196.4063 493.7656,196.5156 493.9844,196.5156 C494.25,196.5156 494.5156,196.375 494.6875,196.1563 C494.7969,196 494.8281,195.8125 494.8281,195.3906 L494.8281,193.9688 C494.8281,193.5313 494.8125,193.4063 494.7188,193.25 C494.5625,192.9844 494.2813,192.8438 493.9844,192.8438 C493.6875,192.8438 493.4844,192.9375 493.2656,193.25 L493.0938,193.1719 Z " fill="#000000"/><text fill="#000000" font-family="sans-serif" font-size="14" lengthAdjust="spacing" textLength="115" x="511.25" y="202.3467">FloorSubsystem</text><line style="stroke:#181818;stroke-width:0.5;" x1="318" x2="787" y1="213.5" y2="213.5"/><rect fill="none" height="6" style="stroke:#C82930;stroke-width:1.0;" width="6" x="325" y="224.1484"/><text fill="#000000" font-family="sans-serif" font-size="14" lengthAdjust="spacing" textLength="195" x="337" y="230.4951">synchronizer: Synchronizer</text><rect fill="none" height="6" style="stroke:#C82930;stroke-width:1.0;" width="6" x="325" y="240.4453"/><text fill="#000000" font-family="sans-serif" font-size="14" lengthAdjust="spacing" textLength="117" x="337" y="246.792">fileName: String</text><line style="stroke:#181818;stroke-width:0.5;" x1="318" x2="787" y1="254.0938" y2="254.0938"/><ellipse cx="328" cy="267.7422" fill="#84BE84" rx="3" ry="3" style="stroke:#038048;stroke-width:1.0;"/><text fill="#000000" font-family="sans-serif" font-size="14" lengthAdjust="spacing" textLength="445" x="337" y="271.0889">FloorSubsystem(synchronizer: Synchronizer, fileName: String)</text><ellipse cx="328" cy="284.0391" fill="#84BE84" rx="3" ry="3" style="stroke:#038048;stroke-width:1.0;"/><text fill="#000000" font-family="sans-serif" font-size="14" lengthAdjust="spacing" textLength="232" x="337" y="287.3857">getSynchronizer(): Synchronizer</text><ellipse cx="328" cy="300.3359" fill="#84BE84" rx="3" ry="3" style="stroke:#038048;stroke-width:1.0;"/><text fill="#000000" font-family="sans-serif" font-size="14" lengthAdjust="spacing" textLength="154" x="337" y="303.6826">getFileName(): String</text><ellipse cx="328" cy="316.6328" fill="#84BE84" rx="3" ry="3" style="stroke:#038048;stroke-width:1.0;"/><text fill="#000000" font-family="sans-serif" font-size="14" lengthAdjust="spacing" textLength="288" x="337" y="319.9795">parseInput(inputLine: String): FloorData</text><ellipse cx="328" cy="332.9297" fill="#84BE84" rx="3" ry="3" style="stroke:#038048;stroke-width:1.0;"/><text fill="#000000" font-family="sans-serif" font-size="14" lengthAdjust="spacing" textLength="72" x="337" y="336.2764">run(): void</text></g><!--class ElevatorSubsystem--><g id="elem_ElevatorSubsystem"><rect codeLine="61" fill="#F1F1F1" height="194.6719" id="ElevatorSubsystem" rx="2.5" ry="2.5" style="stroke:#181818;stroke-width:0.5;" width="422" x="823.5" y="165"/><ellipse cx="960.75" cy="181" fill="#ADD1B2" rx="11" ry="11" style="stroke:#181818;stroke-width:1.0;"/><path d="M963.0938,176.6719 C962.1563,176.2344 961.5625,176.0938 960.6875,176.0938 C958.0625,176.0938 956.0625,178.1719 956.0625,180.8906 L956.0625,182.0156 C956.0625,184.5938 958.1719,186.4844 961.0625,186.4844 C962.2813,186.4844 963.4375,186.1875 964.1875,185.6406 C964.7656,185.2344 965.0938,184.7813 965.0938,184.3906 C965.0938,183.9375 964.7031,183.5469 964.2344,183.5469 C964.0156,183.5469 963.8125,183.625 963.625,183.8125 C963.1719,184.2969 963.1719,184.2969 962.9844,184.3906 C962.5625,184.6563 961.875,184.7813 961.1094,184.7813 C959.0625,184.7813 957.7656,183.6875 957.7656,181.9844 L957.7656,180.8906 C957.7656,179.1094 959.0156,177.7969 960.75,177.7969 C961.3281,177.7969 961.9375,177.9531 962.4063,178.2031 C962.8906,178.4844 963.0625,178.7031 963.1563,179.1094 C963.2188,179.5156 963.25,179.6406 963.3906,179.7656 C963.5313,179.9063 963.7656,180.0156 963.9844,180.0156 C964.25,180.0156 964.5156,179.875 964.6875,179.6563 C964.7969,179.5 964.8281,179.3125 964.8281,178.8906 L964.8281,177.4688 C964.8281,177.0313 964.8125,176.9063 964.7188,176.75 C964.5625,176.4844 964.2813,176.3438 963.9844,176.3438 C963.6875,176.3438 963.4844,176.4375 963.2656,176.75 L963.0938,176.6719 Z " fill="#000000"/><text fill="#000000" font-family="sans-serif" font-size="14" lengthAdjust="spacing" textLength="139" x="981.25" y="185.8467">ElevatorSubsystem</text><line style="stroke:#181818;stroke-width:0.5;" x1="824.5" x2="1244.5" y1="197" y2="197"/><rect fill="none" height="6" style="stroke:#C82930;stroke-width:1.0;" width="6" x="831.5" y="207.6484"/><text fill="#000000" font-family="sans-serif" font-size="14" lengthAdjust="spacing" textLength="118" x="843.5" y="213.9951">currentFloor: int</text><rect fill="none" height="6" style="stroke:#C82930;stroke-width:1.0;" width="6" x="831.5" y="223.9453"/><text fill="#000000" font-family="sans-serif" font-size="14" lengthAdjust="spacing" textLength="327" x="843.5" y="230.292">elevatorStateMachine: ElevatorStateMachine</text><rect fill="none" height="6" style="stroke:#C82930;stroke-width:1.0;" width="6" x="831.5" y="240.2422"/><text fill="#000000" font-family="sans-serif" font-size="14" lengthAdjust="spacing" textLength="195" x="843.5" y="246.5889">synchronizer: Synchronizer</text><line style="stroke:#181818;stroke-width:0.5;" x1="824.5" x2="1244.5" y1="253.8906" y2="253.8906"/><ellipse cx="834.5" cy="267.5391" fill="#84BE84" rx="3" ry="3" style="stroke:#038048;stroke-width:1.0;"/><text fill="#000000" font-family="sans-serif" font-size="14" lengthAdjust="spacing" textLength="344" x="843.5" y="270.8857">ElevatorSubsystem(synchronizer: Synchronizer)</text><ellipse cx="834.5" cy="283.8359" fill="#84BE84" rx="3" ry="3" style="stroke:#038048;stroke-width:1.0;"/><text fill="#000000" font-family="sans-serif" font-size="14" lengthAdjust="spacing" textLength="72" x="843.5" y="287.1826">run(): void</text><rect fill="#F24D5C" height="6" style="stroke:#C82930;stroke-width:1.0;" width="6" x="831.5" y="297.1328"/><text fill="#000000" font-family="sans-serif" font-size="14" lengthAdjust="spacing" textLength="328" x="843.5" y="303.4795">processCommand(command: FloorData): void</text><rect fill="#F24D5C" height="6" style="stroke:#C82930;stroke-width:1.0;" width="6" x="831.5" y="313.4297"/><text fill="#000000" font-family="sans-serif" font-size="14" lengthAdjust="spacing" textLength="396" x="843.5" y="319.7764">moveToFloor(destinationFloor: int, action: String): void</text><rect fill="#F24D5C" height="6" style="stroke:#C82930;stroke-width:1.0;" width="6" x="831.5" y="329.7266"/><text fill="#000000" font-family="sans-serif" font-size="14" lengthAdjust="spacing" textLength="233" x="843.5" y="336.0732">goUp(destinationFloor: int): void</text><rect fill="#F24D5C" height="6" style="stroke:#C82930;stroke-width:1.0;" width="6" x="831.5" y="346.0234"/><text fill="#000000" font-family="sans-serif" font-size="14" lengthAdjust="spacing" textLength="254" x="843.5" y="352.3701">goDown(destinationFloor: int): void</text></g><!--class SchedulerSubsystem--><g id="elem_SchedulerSubsystem"><rect codeLine="47" fill="#F1F1F1" height="145.7813" id="SchedulerSubsystem" rx="2.5" ry="2.5" style="stroke:#181818;stroke-width:0.5;" width="385" x="1281" y="189.5"/><ellipse cx="1394.25" cy="205.5" fill="#ADD1B2" rx="11" ry="11" style="stroke:#181818;stroke-width:1.0;"/><path d="M1396.5938,201.1719 C1395.6563,200.7344 1395.0625,200.5938 1394.1875,200.5938 C1391.5625,200.5938 1389.5625,202.6719 1389.5625,205.3906 L1389.5625,206.5156 C1389.5625,209.0938 1391.6719,210.9844 1394.5625,210.9844 C1395.7813,210.9844 1396.9375,210.6875 1397.6875,210.1406 C1398.2656,209.7344 1398.5938,209.2813 1398.5938,208.8906 C1398.5938,208.4375 1398.2031,208.0469 1397.7344,208.0469 C1397.5156,208.0469 1397.3125,208.125 1397.125,208.3125 C1396.6719,208.7969 1396.6719,208.7969 1396.4844,208.8906 C1396.0625,209.1563 1395.375,209.2813 1394.6094,209.2813 C1392.5625,209.2813 1391.2656,208.1875 1391.2656,206.4844 L1391.2656,205.3906 C1391.2656,203.6094 1392.5156,202.2969 1394.25,202.2969 C1394.8281,202.2969 1395.4375,202.4531 1395.9063,202.7031 C1396.3906,202.9844 1396.5625,203.2031 1396.6563,203.6094 C1396.7188,204.0156 1396.75,204.1406 1396.8906,204.2656 C1397.0313,204.4063 1397.2656,204.5156 1397.4844,204.5156 C1397.75,204.5156 1398.0156,204.375 1398.1875,204.1563 C1398.2969,204 1398.3281,203.8125 1398.3281,203.3906 L1398.3281,201.9688 C1398.3281,201.5313 1398.3125,201.4063 1398.2188,201.25 C1398.0625,200.9844 1397.7813,200.8438 1397.4844,200.8438 C1397.1875,200.8438 1396.9844,200.9375 1396.7656,201.25 L1396.5938,201.1719 Z " fill="#000000"/><text fill="#000000" font-family="sans-serif" font-size="14" lengthAdjust="spacing" textLength="150" x="1414.75" y="210.3467">SchedulerSubsystem</text><line style="stroke:#181818;stroke-width:0.5;" x1="1282" x2="1665" y1="221.5" y2="221.5"/><rect fill="none" height="6" style="stroke:#C82930;stroke-width:1.0;" width="6" x="1289" y="232.1484"/><text fill="#000000" font-family="sans-serif" font-size="14" lengthAdjust="spacing" textLength="199" x="1301" y="238.4951">synchronizer : Synchronizer</text><rect fill="none" height="6" style="stroke:#C82930;stroke-width:1.0;" width="6" x="1289" y="248.4453"/><text fill="#000000" font-family="sans-serif" font-size="14" lengthAdjust="spacing" textLength="280" x="1301" y="254.792">stateMachine : SchedulerStateMachine</text><line style="stroke:#181818;stroke-width:0.5;" x1="1282" x2="1665" y1="262.0938" y2="262.0938"/><ellipse cx="1292" cy="275.7422" fill="#84BE84" rx="3" ry="3" style="stroke:#038048;stroke-width:1.0;"/><text fill="#000000" font-family="sans-serif" font-size="14" lengthAdjust="spacing" textLength="359" x="1301" y="279.0889">SchedulerSubsystem(synchronizer : Synchronizer)</text><ellipse cx="1292" cy="292.0391" fill="#84BE84" rx="3" ry="3" style="stroke:#038048;stroke-width:1.0;"/><text fill="#000000" font-family="sans-serif" font-size="14" lengthAdjust="spacing" textLength="76" x="1301" y="295.3857">run() : void</text><rect fill="#F24D5C" height="6" style="stroke:#C82930;stroke-width:1.0;" width="6" x="1289" y="305.3359"/><text fill="#000000" font-family="sans-serif" font-size="14" lengthAdjust="spacing" textLength="175" x="1301" y="311.6826">processRequests() : void</text><rect fill="#F24D5C" height="6" style="stroke:#C82930;stroke-width:1.0;" width="6" x="1289" y="321.6328"/><text fill="#000000" font-family="sans-serif" font-size="14" lengthAdjust="spacing" textLength="347" x="1301" y="327.9795">dispatchToElevator(command : FloorData) : void</text></g><!--class DirectionEnum--><g id="elem_DirectionEnum"><rect codeLine="17" fill="#F1F1F1" height="80.5938" id="DirectionEnum" rx="2.5" ry="2.5" style="stroke:#181818;stroke-width:0.5;" width="139" x="929" y="7"/><ellipse cx="944" cy="23" fill="#EB937F" rx="11" ry="11" style="stroke:#181818;stroke-width:1.0;"/><path d="M942.7969,23.875 L944.25,23.875 L944.25,23.9844 C944.25,24.3906 944.2813,24.5469 944.3594,24.7031 C944.5156,24.9531 944.7969,25.1094 945.0938,25.1094 C945.3438,25.1094 945.6094,24.9688 945.7656,24.75 C945.8906,24.5938 945.9219,24.4375 945.9219,23.9844 L945.9219,22.0625 C945.9219,21.9063 945.9219,21.8594 945.9063,21.7031 C945.8438,21.2344 945.5313,20.9219 945.0781,20.9219 C944.8281,20.9219 944.5625,21.0625 944.3906,21.2813 C944.2813,21.4531 944.25,21.6094 944.25,22.0625 L944.25,22.1875 L942.7969,22.1875 L942.7969,19.7813 L946.7813,19.7813 L946.7813,20.6406 C946.7813,21.0469 946.8125,21.2188 946.8906,21.375 C947.0625,21.625 947.3438,21.7813 947.625,21.7813 C947.8906,21.7813 948.1563,21.6406 948.3281,21.4219 C948.4375,21.25 948.4688,21.1094 948.4688,20.6406 L948.4688,18.0938 L940.8438,18.0938 C940.4063,18.0938 940.2813,18.1094 940.125,18.2031 C939.875,18.3594 939.7188,18.6563 939.7188,18.9375 C939.7188,19.2188 939.8594,19.4688 940.0781,19.6406 C940.2344,19.75 940.4219,19.7813 940.8438,19.7813 L941.0938,19.7813 L941.0938,26.2969 L940.8438,26.2969 C940.4375,26.2969 940.2813,26.3125 940.125,26.4219 C939.875,26.5938 939.7188,26.8594 939.7188,27.1563 C939.7188,27.4219 939.8594,27.6719 940.0781,27.8281 C940.2188,27.9531 940.4531,28 940.8438,28 L948.8438,28 L948.8438,25.4219 C948.8438,24.9844 948.8125,24.8438 948.7344,24.6875 C948.5625,24.4375 948.2813,24.2813 948,24.2813 C947.7344,24.2813 947.4688,24.3906 947.2969,24.6406 C947.1875,24.7969 947.1563,24.9375 947.1563,25.4219 L947.1563,26.2969 L942.7969,26.2969 L942.7969,23.875 Z " fill="#000000"/><text fill="#000000" font-family="sans-serif" font-size="14" lengthAdjust="spacing" textLength="107" x="958" y="27.8467">DirectionEnum</text><line style="stroke:#181818;stroke-width:0.5;" x1="930" x2="1067" y1="39" y2="39"/><text fill="#000000" font-family="sans-serif" font-size="14" lengthAdjust="spacing" textLength="18" x="935" y="55.9951">UP</text><text fill="#000000" font-family="sans-serif" font-size="14" lengthAdjust="spacing" textLength="46" x="935" y="72.292">DOWN</text><line style="stroke:#181818;stroke-width:0.5;" x1="930" x2="1067" y1="79.5938" y2="79.5938"/></g><!--class SchedulerStateMachine--><g id="elem_SchedulerStateMachine"><rect codeLine="152" fill="#F1F1F1" height="113.1875" id="SchedulerStateMachine" rx="2.5" ry="2.5" style="stroke:#181818;stroke-width:0.5;" width="295" x="3762" y="510.5"/><ellipse cx="3820.25" cy="526.5" fill="#ADD1B2" rx="11" ry="11" style="stroke:#181818;stroke-width:1.0;"/><path d="M3822.5938,522.1719 C3821.6563,521.7344 3821.0625,521.5938 3820.1875,521.5938 C3817.5625,521.5938 3815.5625,523.6719 3815.5625,526.3906 L3815.5625,527.5156 C3815.5625,530.0938 3817.6719,531.9844 3820.5625,531.9844 C3821.7813,531.9844 3822.9375,531.6875 3823.6875,531.1406 C3824.2656,530.7344 3824.5938,530.2813 3824.5938,529.8906 C3824.5938,529.4375 3824.2031,529.0469 3823.7344,529.0469 C3823.5156,529.0469 3823.3125,529.125 3823.125,529.3125 C3822.6719,529.7969 3822.6719,529.7969 3822.4844,529.8906 C3822.0625,530.1563 3821.375,530.2813 3820.6094,530.2813 C3818.5625,530.2813 3817.2656,529.1875 3817.2656,527.4844 L3817.2656,526.3906 C3817.2656,524.6094 3818.5156,523.2969 3820.25,523.2969 C3820.8281,523.2969 3821.4375,523.4531 3821.9063,523.7031 C3822.3906,523.9844 3822.5625,524.2031 3822.6563,524.6094 C3822.7188,525.0156 3822.75,525.1406 3822.8906,525.2656 C3823.0313,525.4063 3823.2656,525.5156 3823.4844,525.5156 C3823.75,525.5156 3824.0156,525.375 3824.1875,525.1563 C3824.2969,525 3824.3281,524.8125 3824.3281,524.3906 L3824.3281,522.9688 C3824.3281,522.5313 3824.3125,522.4063 3824.2188,522.25 C3824.0625,521.9844 3823.7813,521.8438 3823.4844,521.8438 C3823.1875,521.8438 3822.9844,521.9375 3822.7656,522.25 L3822.5938,522.1719 Z " fill="#000000"/><text fill="#000000" font-family="sans-serif" font-size="14" lengthAdjust="spacing" textLength="170" x="3840.75" y="531.3467">SchedulerStateMachine</text><line style="stroke:#181818;stroke-width:0.5;" x1="3763" x2="4056" y1="542.5" y2="542.5"/><rect fill="none" height="6" style="stroke:#C82930;stroke-width:1.0;" width="6" x="3770" y="553.1484"/><text fill="#000000" font-family="sans-serif" font-size="14" lengthAdjust="spacing" textLength="269" x="3782" y="559.4951">states: Map&lt;String, SchedulerState&gt;</text><rect fill="none" height="6" style="stroke:#C82930;stroke-width:1.0;" width="6" x="3770" y="569.4453"/><text fill="#000000" font-family="sans-serif" font-size="14" lengthAdjust="spacing" textLength="213" x="3782" y="575.792">currentState: SchedulerState</text><rect fill="none" height="6" style="stroke:#C82930;stroke-width:1.0;" width="6" x="3770" y="585.7422"/><text fill="#000000" font-family="sans-serif" font-size="14" lengthAdjust="spacing" textLength="269" x="3782" y="592.0889">states: Map&lt;String, SchedulerState&gt;</text><rect fill="none" height="6" style="stroke:#C82930;stroke-width:1.0;" width="6" x="3770" y="602.0391"/><text fill="#000000" font-family="sans-serif" font-size="14" lengthAdjust="spacing" textLength="213" x="3782" y="608.3857">currentState: SchedulerState</text><line style="stroke:#181818;stroke-width:0.5;" x1="3763" x2="4056" y1="615.6875" y2="615.6875"/></g><!--class ElevatorState--><g id="elem_ElevatorState"><rect codeLine="74" fill="#F1F1F1" height="80.5938" id="ElevatorState" rx="2.5" ry="2.5" style="stroke:#181818;stroke-width:0.5;" width="483" x="1561" y="526.5"/><ellipse cx="1750.25" cy="542.5" fill="#B4A7E5" rx="11" ry="11" style="stroke:#181818;stroke-width:1.0;"/><path d="M1751.2031,539.2813 L1752.9219,539.2813 C1753.3125,539.2813 1753.5,539.25 1753.625,539.1719 C1753.8906,539.0156 1754.0313,538.7344 1754.0313,538.4375 C1754.0313,538.1719 1753.9219,537.9063 1753.6875,537.7344 C1753.5156,537.625 1753.375,537.5938 1752.9219,537.5938 L1747.7813,537.5938 C1747.3438,537.5938 1747.2188,537.6094 1747.0625,537.7031 C1746.8125,537.8594 1746.6563,538.1563 1746.6563,538.4375 C1746.6563,538.7188 1746.7969,538.9688 1747.0156,539.1406 C1747.1719,539.25 1747.3594,539.2813 1747.7813,539.2813 L1749.5,539.2813 L1749.5,545.7969 L1747.7813,545.7969 C1747.3438,545.7969 1747.2188,545.8125 1747.0625,545.9219 C1746.8125,546.0781 1746.6563,546.3594 1746.6563,546.6563 C1746.6563,546.9063 1746.7969,547.1719 1747.0156,547.3281 C1747.1719,547.4531 1747.375,547.5 1747.7813,547.5 L1752.9219,547.5 C1753.6719,547.5 1754.0313,547.2188 1754.0313,546.6563 C1754.0313,546.375 1753.9219,546.125 1753.6875,545.9531 C1753.5156,545.8281 1753.375,545.7969 1752.9219,545.7969 L1751.2031,545.7969 L1751.2031,539.2813 Z " fill="#000000"/><text fill="#000000" font-family="sans-serif" font-size="14" font-style="italic" lengthAdjust="spacing" textLength="96" x="1770.75" y="547.3467">ElevatorState</text><line style="stroke:#181818;stroke-width:0.5;" x1="1562" x2="2043" y1="558.5" y2="558.5"/><line style="stroke:#181818;stroke-width:0.5;" x1="1562" x2="2043" y1="566.5" y2="566.5"/><ellipse cx="1572" cy="580.1484" fill="#84BE84" rx="3" ry="3" style="stroke:#038048;stroke-width:1.0;"/><text fill="#000000" font-family="sans-serif" font-size="14" lengthAdjust="spacing" textLength="457" x="1581" y="583.4951">handleEvent(ElevatorStateMachine context, String event): void</text><ellipse cx="1572" cy="596.4453" fill="#84BE84" rx="3" ry="3" style="stroke:#038048;stroke-width:1.0;"/><text fill="#000000" font-family="sans-serif" font-size="14" lengthAdjust="spacing" textLength="139" x="1581" y="599.792">displayState(): void</text></g><!--class Idle--><g id="elem_Idle"><rect codeLine="79" fill="#F1F1F1" height="80.5938" id="Idle" rx="2.5" ry="2.5" style="stroke:#181818;stroke-width:0.5;" width="483" x="2079" y="774"/><ellipse cx="2303.25" cy="790" fill="#ADD1B2" rx="11" ry="11" style="stroke:#181818;stroke-width:1.0;"/><path d="M2305.5938,785.6719 C2304.6563,785.2344 2304.0625,785.0938 2303.1875,785.0938 C2300.5625,785.0938 2298.5625,787.1719 2298.5625,789.8906 L2298.5625,791.0156 C2298.5625,793.5938 2300.6719,795.4844 2303.5625,795.4844 C2304.7813,795.4844 2305.9375,795.1875 2306.6875,794.6406 C2307.2656,794.2344 2307.5938,793.7813 2307.5938,793.3906 C2307.5938,792.9375 2307.2031,792.5469 2306.7344,792.5469 C2306.5156,792.5469 2306.3125,792.625 2306.125,792.8125 C2305.6719,793.2969 2305.6719,793.2969 2305.4844,793.3906 C2305.0625,793.6563 2304.375,793.7813 2303.6094,793.7813 C2301.5625,793.7813 2300.2656,792.6875 2300.2656,790.9844 L2300.2656,789.8906 C2300.2656,788.1094 2301.5156,786.7969 2303.25,786.7969 C2303.8281,786.7969 2304.4375,786.9531 2304.9063,787.2031 C2305.3906,787.4844 2305.5625,787.7031 2305.6563,788.1094 C2305.7188,788.5156 2305.75,788.6406 2305.8906,788.7656 C2306.0313,788.9063 2306.2656,789.0156 2306.4844,789.0156 C2306.75,789.0156 2307.0156,788.875 2307.1875,788.6563 C2307.2969,788.5 2307.3281,788.3125 2307.3281,787.8906 L2307.3281,786.4688 C2307.3281,786.0313 2307.3125,785.9063 2307.2188,785.75 C2307.0625,785.4844 2306.7813,785.3438 2306.4844,785.3438 C2306.1875,785.3438 2305.9844,785.4375 2305.7656,785.75 L2305.5938,785.6719 Z " fill="#000000"/><text fill="#000000" font-family="sans-serif" font-size="14" lengthAdjust="spacing" textLength="26" x="2323.75" y="794.8467">Idle</text><line style="stroke:#181818;stroke-width:0.5;" x1="2080" x2="2561" y1="806" y2="806"/><line style="stroke:#181818;stroke-width:0.5;" x1="2080" x2="2561" y1="814" y2="814"/><ellipse cx="2090" cy="827.6484" fill="#84BE84" rx="3" ry="3" style="stroke:#038048;stroke-width:1.0;"/><text fill="#000000" font-family="sans-serif" font-size="14" lengthAdjust="spacing" textLength="457" x="2099" y="830.9951">handleEvent(ElevatorStateMachine context, String event): void</text><ellipse cx="2090" cy="843.9453" fill="#84BE84" rx="3" ry="3" style="stroke:#038048;stroke-width:1.0;"/><text fill="#000000" font-family="sans-serif" font-size="14" lengthAdjust="spacing" textLength="139" x="2099" y="847.292">displayState(): void</text></g><!--class MovingUp--><g id="elem_MovingUp"><rect codeLine="84" fill="#F1F1F1" height="80.5938" id="MovingUp" rx="2.5" ry="2.5" style="stroke:#181818;stroke-width:0.5;" width="483" x="1561" y="774"/><ellipse cx="1763.25" cy="790" fill="#ADD1B2" rx="11" ry="11" style="stroke:#181818;stroke-width:1.0;"/><path d="M1765.5938,785.6719 C1764.6563,785.2344 1764.0625,785.0938 1763.1875,785.0938 C1760.5625,785.0938 1758.5625,787.1719 1758.5625,789.8906 L1758.5625,791.0156 C1758.5625,793.5938 1760.6719,795.4844 1763.5625,795.4844 C1764.7813,795.4844 1765.9375,795.1875 1766.6875,794.6406 C1767.2656,794.2344 1767.5938,793.7813 1767.5938,793.3906 C1767.5938,792.9375 1767.2031,792.5469 1766.7344,792.5469 C1766.5156,792.5469 1766.3125,792.625 1766.125,792.8125 C1765.6719,793.2969 1765.6719,793.2969 1765.4844,793.3906 C1765.0625,793.6563 1764.375,793.7813 1763.6094,793.7813 C1761.5625,793.7813 1760.2656,792.6875 1760.2656,790.9844 L1760.2656,789.8906 C1760.2656,788.1094 1761.5156,786.7969 1763.25,786.7969 C1763.8281,786.7969 1764.4375,786.9531 1764.9063,787.2031 C1765.3906,787.4844 1765.5625,787.7031 1765.6563,788.1094 C1765.7188,788.5156 1765.75,788.6406 1765.8906,788.7656 C1766.0313,788.9063 1766.2656,789.0156 1766.4844,789.0156 C1766.75,789.0156 1767.0156,788.875 1767.1875,788.6563 C1767.2969,788.5 1767.3281,788.3125 1767.3281,787.8906 L1767.3281,786.4688 C1767.3281,786.0313 1767.3125,785.9063 1767.2188,785.75 C1767.0625,785.4844 1766.7813,785.3438 1766.4844,785.3438 C1766.1875,785.3438 1765.9844,785.4375 1765.7656,785.75 L1765.5938,785.6719 Z " fill="#000000"/><text fill="#000000" font-family="sans-serif" font-size="14" lengthAdjust="spacing" textLength="70" x="1783.75" y="794.8467">MovingUp</text><line style="stroke:#181818;stroke-width:0.5;" x1="1562" x2="2043" y1="806" y2="806"/><line style="stroke:#181818;stroke-width:0.5;" x1="1562" x2="2043" y1="814" y2="814"/><ellipse cx="1572" cy="827.6484" fill="#84BE84" rx="3" ry="3" style="stroke:#038048;stroke-width:1.0;"/><text fill="#000000" font-family="sans-serif" font-size="14" lengthAdjust="spacing" textLength="457" x="1581" y="830.9951">handleEvent(ElevatorStateMachine context, String event): void</text><ellipse cx="1572" cy="843.9453" fill="#84BE84" rx="3" ry="3" style="stroke:#038048;stroke-width:1.0;"/><text fill="#000000" font-family="sans-serif" font-size="14" lengthAdjust="spacing" textLength="139" x="1581" y="847.292">displayState(): void</text></g><!--class MovingDown--><g id="elem_MovingDown"><rect codeLine="89" fill="#F1F1F1" height="80.5938" id="MovingDown" rx="2.5" ry="2.5" style="stroke:#181818;stroke-width:0.5;" width="483" x="7" y="774"/><ellipse cx="198.75" cy="790" fill="#ADD1B2" rx="11" ry="11" style="stroke:#181818;stroke-width:1.0;"/><path d="M201.0938,785.6719 C200.1563,785.2344 199.5625,785.0938 198.6875,785.0938 C196.0625,785.0938 194.0625,787.1719 194.0625,789.8906 L194.0625,791.0156 C194.0625,793.5938 196.1719,795.4844 199.0625,795.4844 C200.2813,795.4844 201.4375,795.1875 202.1875,794.6406 C202.7656,794.2344 203.0938,793.7813 203.0938,793.3906 C203.0938,792.9375 202.7031,792.5469 202.2344,792.5469 C202.0156,792.5469 201.8125,792.625 201.625,792.8125 C201.1719,793.2969 201.1719,793.2969 200.9844,793.3906 C200.5625,793.6563 199.875,793.7813 199.1094,793.7813 C197.0625,793.7813 195.7656,792.6875 195.7656,790.9844 L195.7656,789.8906 C195.7656,788.1094 197.0156,786.7969 198.75,786.7969 C199.3281,786.7969 199.9375,786.9531 200.4063,787.2031 C200.8906,787.4844 201.0625,787.7031 201.1563,788.1094 C201.2188,788.5156 201.25,788.6406 201.3906,788.7656 C201.5313,788.9063 201.7656,789.0156 201.9844,789.0156 C202.25,789.0156 202.5156,788.875 202.6875,788.6563 C202.7969,788.5 202.8281,788.3125 202.8281,787.8906 L202.8281,786.4688 C202.8281,786.0313 202.8125,785.9063 202.7188,785.75 C202.5625,785.4844 202.2813,785.3438 201.9844,785.3438 C201.6875,785.3438 201.4844,785.4375 201.2656,785.75 L201.0938,785.6719 Z " fill="#000000"/><text fill="#000000" font-family="sans-serif" font-size="14" lengthAdjust="spacing" textLength="91" x="219.25" y="794.8467">MovingDown</text><line style="stroke:#181818;stroke-width:0.5;" x1="8" x2="489" y1="806" y2="806"/><line style="stroke:#181818;stroke-width:0.5;" x1="8" x2="489" y1="814" y2="814"/><ellipse cx="18" cy="827.6484" fill="#84BE84" rx="3" ry="3" style="stroke:#038048;stroke-width:1.0;"/><text fill="#000000" font-family="sans-serif" font-size="14" lengthAdjust="spacing" textLength="457" x="27" y="830.9951">handleEvent(ElevatorStateMachine context, String event): void</text><ellipse cx="18" cy="843.9453" fill="#84BE84" rx="3" ry="3" style="stroke:#038048;stroke-width:1.0;"/><text fill="#000000" font-family="sans-serif" font-size="14" lengthAdjust="spacing" textLength="139" x="27" y="847.292">displayState(): void</text></g><!--class DoorsOpen--><g id="elem_DoorsOpen"><rect codeLine="94" fill="#F1F1F1" height="80.5938" id="DoorsOpen" rx="2.5" ry="2.5" style="stroke:#181818;stroke-width:0.5;" width="483" x="525" y="774"/><ellipse cx="721.75" cy="790" fill="#ADD1B2" rx="11" ry="11" style="stroke:#181818;stroke-width:1.0;"/><path d="M724.0938,785.6719 C723.1563,785.2344 722.5625,785.0938 721.6875,785.0938 C719.0625,785.0938 717.0625,787.1719 717.0625,789.8906 L717.0625,791.0156 C717.0625,793.5938 719.1719,795.4844 722.0625,795.4844 C723.2813,795.4844 724.4375,795.1875 725.1875,794.6406 C725.7656,794.2344 726.0938,793.7813 726.0938,793.3906 C726.0938,792.9375 725.7031,792.5469 725.2344,792.5469 C725.0156,792.5469 724.8125,792.625 724.625,792.8125 C724.1719,793.2969 724.1719,793.2969 723.9844,793.3906 C723.5625,793.6563 722.875,793.7813 722.1094,793.7813 C720.0625,793.7813 718.7656,792.6875 718.7656,790.9844 L718.7656,789.8906 C718.7656,788.1094 720.0156,786.7969 721.75,786.7969 C722.3281,786.7969 722.9375,786.9531 723.4063,787.2031 C723.8906,787.4844 724.0625,787.7031 724.1563,788.1094 C724.2188,788.5156 724.25,788.6406 724.3906,788.7656 C724.5313,788.9063 724.7656,789.0156 724.9844,789.0156 C725.25,789.0156 725.5156,788.875 725.6875,788.6563 C725.7969,788.5 725.8281,788.3125 725.8281,787.8906 L725.8281,786.4688 C725.8281,786.0313 725.8125,785.9063 725.7188,785.75 C725.5625,785.4844 725.2813,785.3438 724.9844,785.3438 C724.6875,785.3438 724.4844,785.4375 724.2656,785.75 L724.0938,785.6719 Z " fill="#000000"/><text fill="#000000" font-family="sans-serif" font-size="14" lengthAdjust="spacing" textLength="81" x="742.25" y="794.8467">DoorsOpen</text><line style="stroke:#181818;stroke-width:0.5;" x1="526" x2="1007" y1="806" y2="806"/><line style="stroke:#181818;stroke-width:0.5;" x1="526" x2="1007" y1="814" y2="814"/><ellipse cx="536" cy="827.6484" fill="#84BE84" rx="3" ry="3" style="stroke:#038048;stroke-width:1.0;"/><text fill="#000000" font-family="sans-serif" font-size="14" lengthAdjust="spacing" textLength="457" x="545" y="830.9951">handleEvent(ElevatorStateMachine context, String event): void</text><ellipse cx="536" cy="843.9453" fill="#84BE84" rx="3" ry="3" style="stroke:#038048;stroke-width:1.0;"/><text fill="#000000" font-family="sans-serif" font-size="14" lengthAdjust="spacing" textLength="139" x="545" y="847.292">displayState(): void</text></g><!--class DoorsClosed--><g id="elem_DoorsClosed"><rect codeLine="99" fill="#F1F1F1" height="80.5938" id="DoorsClosed" rx="2.5" ry="2.5" style="stroke:#181818;stroke-width:0.5;" width="483" x="2597" y="774"/><ellipse cx="2789.25" cy="790" fill="#ADD1B2" rx="11" ry="11" style="stroke:#181818;stroke-width:1.0;"/><path d="M2791.5938,785.6719 C2790.6563,785.2344 2790.0625,785.0938 2789.1875,785.0938 C2786.5625,785.0938 2784.5625,787.1719 2784.5625,789.8906 L2784.5625,791.0156 C2784.5625,793.5938 2786.6719,795.4844 2789.5625,795.4844 C2790.7813,795.4844 2791.9375,795.1875 2792.6875,794.6406 C2793.2656,794.2344 2793.5938,793.7813 2793.5938,793.3906 C2793.5938,792.9375 2793.2031,792.5469 2792.7344,792.5469 C2792.5156,792.5469 2792.3125,792.625 2792.125,792.8125 C2791.6719,793.2969 2791.6719,793.2969 2791.4844,793.3906 C2791.0625,793.6563 2790.375,793.7813 2789.6094,793.7813 C2787.5625,793.7813 2786.2656,792.6875 2786.2656,790.9844 L2786.2656,789.8906 C2786.2656,788.1094 2787.5156,786.7969 2789.25,786.7969 C2789.8281,786.7969 2790.4375,786.9531 2790.9063,787.2031 C2791.3906,787.4844 2791.5625,787.7031 2791.6563,788.1094 C2791.7188,788.5156 2791.75,788.6406 2791.8906,788.7656 C2792.0313,788.9063 2792.2656,789.0156 2792.4844,789.0156 C2792.75,789.0156 2793.0156,788.875 2793.1875,788.6563 C2793.2969,788.5 2793.3281,788.3125 2793.3281,787.8906 L2793.3281,786.4688 C2793.3281,786.0313 2793.3125,785.9063 2793.2188,785.75 C2793.0625,785.4844 2792.7813,785.3438 2792.4844,785.3438 C2792.1875,785.3438 2791.9844,785.4375 2791.7656,785.75 L2791.5938,785.6719 Z " fill="#000000"/><text fill="#000000" font-family="sans-serif" font-size="14" lengthAdjust="spacing" textLength="90" x="2809.75" y="794.8467">DoorsClosed</text><line style="stroke:#181818;stroke-width:0.5;" x1="2598" x2="3079" y1="806" y2="806"/><line style="stroke:#181818;stroke-width:0.5;" x1="2598" x2="3079" y1="814" y2="814"/><ellipse cx="2608" cy="827.6484" fill="#84BE84" rx="3" ry="3" style="stroke:#038048;stroke-width:1.0;"/><text fill="#000000" font-family="sans-serif" font-size="14" lengthAdjust="spacing" textLength="457" x="2617" y="830.9951">handleEvent(ElevatorStateMachine context, String event): void</text><ellipse cx="2608" cy="843.9453" fill="#84BE84" rx="3" ry="3" style="stroke:#038048;stroke-width:1.0;"/><text fill="#000000" font-family="sans-serif" font-size="14" lengthAdjust="spacing" textLength="139" x="2617" y="847.292">displayState(): void</text></g><!--class Stopped--><g id="elem_Stopped"><rect codeLine="104" fill="#F1F1F1" height="80.5938" id="Stopped" rx="2.5" ry="2.5" style="stroke:#181818;stroke-width:0.5;" width="483" x="1043" y="774"/><ellipse cx="1248.75" cy="790" fill="#ADD1B2" rx="11" ry="11" style="stroke:#181818;stroke-width:1.0;"/><path d="M1251.0938,785.6719 C1250.1563,785.2344 1249.5625,785.0938 1248.6875,785.0938 C1246.0625,785.0938 1244.0625,787.1719 1244.0625,789.8906 L1244.0625,791.0156 C1244.0625,793.5938 1246.1719,795.4844 1249.0625,795.4844 C1250.2813,795.4844 1251.4375,795.1875 1252.1875,794.6406 C1252.7656,794.2344 1253.0938,793.7813 1253.0938,793.3906 C1253.0938,792.9375 1252.7031,792.5469 1252.2344,792.5469 C1252.0156,792.5469 1251.8125,792.625 1251.625,792.8125 C1251.1719,793.2969 1251.1719,793.2969 1250.9844,793.3906 C1250.5625,793.6563 1249.875,793.7813 1249.1094,793.7813 C1247.0625,793.7813 1245.7656,792.6875 1245.7656,790.9844 L1245.7656,789.8906 C1245.7656,788.1094 1247.0156,786.7969 1248.75,786.7969 C1249.3281,786.7969 1249.9375,786.9531 1250.4063,787.2031 C1250.8906,787.4844 1251.0625,787.7031 1251.1563,788.1094 C1251.2188,788.5156 1251.25,788.6406 1251.3906,788.7656 C1251.5313,788.9063 1251.7656,789.0156 1251.9844,789.0156 C1252.25,789.0156 1252.5156,788.875 1252.6875,788.6563 C1252.7969,788.5 1252.8281,788.3125 1252.8281,787.8906 L1252.8281,786.4688 C1252.8281,786.0313 1252.8125,785.9063 1252.7188,785.75 C1252.5625,785.4844 1252.2813,785.3438 1251.9844,785.3438 C1251.6875,785.3438 1251.4844,785.4375 1251.2656,785.75 L1251.0938,785.6719 Z " fill="#000000"/><text fill="#000000" font-family="sans-serif" font-size="14" lengthAdjust="spacing" textLength="63" x="1269.25" y="794.8467">Stopped</text><line style="stroke:#181818;stroke-width:0.5;" x1="1044" x2="1525" y1="806" y2="806"/><line style="stroke:#181818;stroke-width:0.5;" x1="1044" x2="1525" y1="814" y2="814"/><ellipse cx="1054" cy="827.6484" fill="#84BE84" rx="3" ry="3" style="stroke:#038048;stroke-width:1.0;"/><text fill="#000000" font-family="sans-serif" font-size="14" lengthAdjust="spacing" textLength="457" x="1063" y="830.9951">handleEvent(ElevatorStateMachine context, String event): void</text><ellipse cx="1054" cy="843.9453" fill="#84BE84" rx="3" ry="3" style="stroke:#038048;stroke-width:1.0;"/><text fill="#000000" font-family="sans-serif" font-size="14" lengthAdjust="spacing" textLength="139" x="1063" y="847.292">displayState(): void</text></g><!--class ElevatorStateMachine--><g id="elem_ElevatorStateMachine"><rect codeLine="109" fill="#F1F1F1" height="80.5938" id="ElevatorStateMachine" rx="2.5" ry="2.5" style="stroke:#181818;stroke-width:0.5;" width="284" x="1160.5" y="526.5"/><ellipse cx="1218.75" cy="542.5" fill="#ADD1B2" rx="11" ry="11" style="stroke:#181818;stroke-width:1.0;"/><path d="M1221.0938,538.1719 C1220.1563,537.7344 1219.5625,537.5938 1218.6875,537.5938 C1216.0625,537.5938 1214.0625,539.6719 1214.0625,542.3906 L1214.0625,543.5156 C1214.0625,546.0938 1216.1719,547.9844 1219.0625,547.9844 C1220.2813,547.9844 1221.4375,547.6875 1222.1875,547.1406 C1222.7656,546.7344 1223.0938,546.2813 1223.0938,545.8906 C1223.0938,545.4375 1222.7031,545.0469 1222.2344,545.0469 C1222.0156,545.0469 1221.8125,545.125 1221.625,545.3125 C1221.1719,545.7969 1221.1719,545.7969 1220.9844,545.8906 C1220.5625,546.1563 1219.875,546.2813 1219.1094,546.2813 C1217.0625,546.2813 1215.7656,545.1875 1215.7656,543.4844 L1215.7656,542.3906 C1215.7656,540.6094 1217.0156,539.2969 1218.75,539.2969 C1219.3281,539.2969 1219.9375,539.4531 1220.4063,539.7031 C1220.8906,539.9844 1221.0625,540.2031 1221.1563,540.6094 C1221.2188,541.0156 1221.25,541.1406 1221.3906,541.2656 C1221.5313,541.4063 1221.7656,541.5156 1221.9844,541.5156 C1222.25,541.5156 1222.5156,541.375 1222.6875,541.1563 C1222.7969,541 1222.8281,540.8125 1222.8281,540.3906 L1222.8281,538.9688 C1222.8281,538.5313 1222.8125,538.4063 1222.7188,538.25 C1222.5625,537.9844 1222.2813,537.8438 1221.9844,537.8438 C1221.6875,537.8438 1221.4844,537.9375 1221.2656,538.25 L1221.0938,538.1719 Z " fill="#000000"/><text fill="#000000" font-family="sans-serif" font-size="14" lengthAdjust="spacing" textLength="159" x="1239.25" y="547.3467">ElevatorStateMachine</text><line style="stroke:#181818;stroke-width:0.5;" x1="1161.5" x2="1443.5" y1="558.5" y2="558.5"/><rect fill="none" height="6" style="stroke:#C82930;stroke-width:1.0;" width="6" x="1168.5" y="569.1484"/><text fill="#000000" font-family="sans-serif" font-size="14" lengthAdjust="spacing" textLength="258" x="1180.5" y="575.4951">states: Map&lt;String, ElevatorState&gt;</text><rect fill="none" height="6" style="stroke:#C82930;stroke-width:1.0;" width="6" x="1168.5" y="585.4453"/><text fill="#000000" font-family="sans-serif" font-size="14" lengthAdjust="spacing" textLength="202" x="1180.5" y="591.792">currentState: ElevatorState</text><line style="stroke:#181818;stroke-width:0.5;" x1="1161.5" x2="1443.5" y1="599.0938" y2="599.0938"/></g><!--class SchedulerState--><g id="elem_SchedulerState"><rect codeLine="122" fill="#F1F1F1" height="80.5938" id="SchedulerState" rx="2.5" ry="2.5" style="stroke:#181818;stroke-width:0.5;" width="494" x="4173.5" y="526.5"/><ellipse cx="4361.75" cy="542.5" fill="#B4A7E5" rx="11" ry="11" style="stroke:#181818;stroke-width:1.0;"/><path d="M4362.7031,539.2813 L4364.4219,539.2813 C4364.8125,539.2813 4365,539.25 4365.125,539.1719 C4365.3906,539.0156 4365.5313,538.7344 4365.5313,538.4375 C4365.5313,538.1719 4365.4219,537.9063 4365.1875,537.7344 C4365.0156,537.625 4364.875,537.5938 4364.4219,537.5938 L4359.2813,537.5938 C4358.8438,537.5938 4358.7188,537.6094 4358.5625,537.7031 C4358.3125,537.8594 4358.1563,538.1563 4358.1563,538.4375 C4358.1563,538.7188 4358.2969,538.9688 4358.5156,539.1406 C4358.6719,539.25 4358.8594,539.2813 4359.2813,539.2813 L4361,539.2813 L4361,545.7969 L4359.2813,545.7969 C4358.8438,545.7969 4358.7188,545.8125 4358.5625,545.9219 C4358.3125,546.0781 4358.1563,546.3594 4358.1563,546.6563 C4358.1563,546.9063 4358.2969,547.1719 4358.5156,547.3281 C4358.6719,547.4531 4358.875,547.5 4359.2813,547.5 L4364.4219,547.5 C4365.1719,547.5 4365.5313,547.2188 4365.5313,546.6563 C4365.5313,546.375 4365.4219,546.125 4365.1875,545.9531 C4365.0156,545.8281 4364.875,545.7969 4364.4219,545.7969 L4362.7031,545.7969 L4362.7031,539.2813 Z " fill="#000000"/><text fill="#000000" font-family="sans-serif" font-size="14" font-style="italic" lengthAdjust="spacing" textLength="109" x="4382.25" y="547.3467">SchedulerState</text><line style="stroke:#181818;stroke-width:0.5;" x1="4174.5" x2="4666.5" y1="558.5" y2="558.5"/><line style="stroke:#181818;stroke-width:0.5;" x1="4174.5" x2="4666.5" y1="566.5" y2="566.5"/><ellipse cx="4184.5" cy="580.1484" fill="#84BE84" rx="3" ry="3" style="stroke:#038048;stroke-width:1.0;"/><text fill="#000000" font-family="sans-serif" font-size="14" lengthAdjust="spacing" textLength="468" x="4193.5" y="583.4951">handleEvent(SchedulerStateMachine context, String event): void</text><ellipse cx="4184.5" cy="596.4453" fill="#84BE84" rx="3" ry="3" style="stroke:#038048;stroke-width:1.0;"/><text fill="#000000" font-family="sans-serif" font-size="14" lengthAdjust="spacing" textLength="139" x="4193.5" y="599.792">displayState(): void</text></g><!--class CommandCompleteState--><g id="elem_CommandCompleteState"><rect codeLine="127" fill="#F1F1F1" height="80.5938" id="CommandCompleteState" rx="2.5" ry="2.5" style="stroke:#181818;stroke-width:0.5;" width="494" x="3115.5" y="774"/><ellipse cx="3265.75" cy="790" fill="#ADD1B2" rx="11" ry="11" style="stroke:#181818;stroke-width:1.0;"/><path d="M3268.0938,785.6719 C3267.1563,785.2344 3266.5625,785.0938 3265.6875,785.0938 C3263.0625,785.0938 3261.0625,787.1719 3261.0625,789.8906 L3261.0625,791.0156 C3261.0625,793.5938 3263.1719,795.4844 3266.0625,795.4844 C3267.2813,795.4844 3268.4375,795.1875 3269.1875,794.6406 C3269.7656,794.2344 3270.0938,793.7813 3270.0938,793.3906 C3270.0938,792.9375 3269.7031,792.5469 3269.2344,792.5469 C3269.0156,792.5469 3268.8125,792.625 3268.625,792.8125 C3268.1719,793.2969 3268.1719,793.2969 3267.9844,793.3906 C3267.5625,793.6563 3266.875,793.7813 3266.1094,793.7813 C3264.0625,793.7813 3262.7656,792.6875 3262.7656,790.9844 L3262.7656,789.8906 C3262.7656,788.1094 3264.0156,786.7969 3265.75,786.7969 C3266.3281,786.7969 3266.9375,786.9531 3267.4063,787.2031 C3267.8906,787.4844 3268.0625,787.7031 3268.1563,788.1094 C3268.2188,788.5156 3268.25,788.6406 3268.3906,788.7656 C3268.5313,788.9063 3268.7656,789.0156 3268.9844,789.0156 C3269.25,789.0156 3269.5156,788.875 3269.6875,788.6563 C3269.7969,788.5 3269.8281,788.3125 3269.8281,787.8906 L3269.8281,786.4688 C3269.8281,786.0313 3269.8125,785.9063 3269.7188,785.75 C3269.5625,785.4844 3269.2813,785.3438 3268.9844,785.3438 C3268.6875,785.3438 3268.4844,785.4375 3268.2656,785.75 L3268.0938,785.6719 Z " fill="#000000"/><text fill="#000000" font-family="sans-serif" font-size="14" lengthAdjust="spacing" textLength="185" x="3286.25" y="794.8467">CommandCompleteState</text><line style="stroke:#181818;stroke-width:0.5;" x1="3116.5" x2="3608.5" y1="806" y2="806"/><line style="stroke:#181818;stroke-width:0.5;" x1="3116.5" x2="3608.5" y1="814" y2="814"/><ellipse cx="3126.5" cy="827.6484" fill="#84BE84" rx="3" ry="3" style="stroke:#038048;stroke-width:1.0;"/><text fill="#000000" font-family="sans-serif" font-size="14" lengthAdjust="spacing" textLength="468" x="3135.5" y="830.9951">handleEvent(SchedulerStateMachine context, String event): void</text><ellipse cx="3126.5" cy="843.9453" fill="#84BE84" rx="3" ry="3" style="stroke:#038048;stroke-width:1.0;"/><text fill="#000000" font-family="sans-serif" font-size="14" lengthAdjust="spacing" textLength="139" x="3135.5" y="847.292">displayState(): void</text></g><!--class CommandSelectedState--><g id="elem_CommandSelectedState"><rect codeLine="132" fill="#F1F1F1" height="80.5938" id="CommandSelectedState" rx="2.5" ry="2.5" style="stroke:#181818;stroke-width:0.5;" width="494" x="4702.5" y="774"/><ellipse cx="4856.75" cy="790" fill="#ADD1B2" rx="11" ry="11" style="stroke:#181818;stroke-width:1.0;"/><path d="M4859.0938,785.6719 C4858.1563,785.2344 4857.5625,785.0938 4856.6875,785.0938 C4854.0625,785.0938 4852.0625,787.1719 4852.0625,789.8906 L4852.0625,791.0156 C4852.0625,793.5938 4854.1719,795.4844 4857.0625,795.4844 C4858.2813,795.4844 4859.4375,795.1875 4860.1875,794.6406 C4860.7656,794.2344 4861.0938,793.7813 4861.0938,793.3906 C4861.0938,792.9375 4860.7031,792.5469 4860.2344,792.5469 C4860.0156,792.5469 4859.8125,792.625 4859.625,792.8125 C4859.1719,793.2969 4859.1719,793.2969 4858.9844,793.3906 C4858.5625,793.6563 4857.875,793.7813 4857.1094,793.7813 C4855.0625,793.7813 4853.7656,792.6875 4853.7656,790.9844 L4853.7656,789.8906 C4853.7656,788.1094 4855.0156,786.7969 4856.75,786.7969 C4857.3281,786.7969 4857.9375,786.9531 4858.4063,787.2031 C4858.8906,787.4844 4859.0625,787.7031 4859.1563,788.1094 C4859.2188,788.5156 4859.25,788.6406 4859.3906,788.7656 C4859.5313,788.9063 4859.7656,789.0156 4859.9844,789.0156 C4860.25,789.0156 4860.5156,788.875 4860.6875,788.6563 C4860.7969,788.5 4860.8281,788.3125 4860.8281,787.8906 L4860.8281,786.4688 C4860.8281,786.0313 4860.8125,785.9063 4860.7188,785.75 C4860.5625,785.4844 4860.2813,785.3438 4859.9844,785.3438 C4859.6875,785.3438 4859.4844,785.4375 4859.2656,785.75 L4859.0938,785.6719 Z " fill="#000000"/><text fill="#000000" font-family="sans-serif" font-size="14" lengthAdjust="spacing" textLength="177" x="4877.25" y="794.8467">CommandSelectedState</text><line style="stroke:#181818;stroke-width:0.5;" x1="4703.5" x2="5195.5" y1="806" y2="806"/><line style="stroke:#181818;stroke-width:0.5;" x1="4703.5" x2="5195.5" y1="814" y2="814"/><ellipse cx="4713.5" cy="827.6484" fill="#84BE84" rx="3" ry="3" style="stroke:#038048;stroke-width:1.0;"/><text fill="#000000" font-family="sans-serif" font-size="14" lengthAdjust="spacing" textLength="468" x="4722.5" y="830.9951">handleEvent(SchedulerStateMachine context, String event): void</text><ellipse cx="4713.5" cy="843.9453" fill="#84BE84" rx="3" ry="3" style="stroke:#038048;stroke-width:1.0;"/><text fill="#000000" font-family="sans-serif" font-size="14" lengthAdjust="spacing" textLength="139" x="4722.5" y="847.292">displayState(): void</text></g><!--class IdleState--><g id="elem_IdleState"><rect codeLine="137" fill="#F1F1F1" height="80.5938" id="IdleState" rx="2.5" ry="2.5" style="stroke:#181818;stroke-width:0.5;" width="494" x="3644.5" y="774"/><ellipse cx="3854.25" cy="790" fill="#ADD1B2" rx="11" ry="11" style="stroke:#181818;stroke-width:1.0;"/><path d="M3856.5938,785.6719 C3855.6563,785.2344 3855.0625,785.0938 3854.1875,785.0938 C3851.5625,785.0938 3849.5625,787.1719 3849.5625,789.8906 L3849.5625,791.0156 C3849.5625,793.5938 3851.6719,795.4844 3854.5625,795.4844 C3855.7813,795.4844 3856.9375,795.1875 3857.6875,794.6406 C3858.2656,794.2344 3858.5938,793.7813 3858.5938,793.3906 C3858.5938,792.9375 3858.2031,792.5469 3857.7344,792.5469 C3857.5156,792.5469 3857.3125,792.625 3857.125,792.8125 C3856.6719,793.2969 3856.6719,793.2969 3856.4844,793.3906 C3856.0625,793.6563 3855.375,793.7813 3854.6094,793.7813 C3852.5625,793.7813 3851.2656,792.6875 3851.2656,790.9844 L3851.2656,789.8906 C3851.2656,788.1094 3852.5156,786.7969 3854.25,786.7969 C3854.8281,786.7969 3855.4375,786.9531 3855.9063,787.2031 C3856.3906,787.4844 3856.5625,787.7031 3856.6563,788.1094 C3856.7188,788.5156 3856.75,788.6406 3856.8906,788.7656 C3857.0313,788.9063 3857.2656,789.0156 3857.4844,789.0156 C3857.75,789.0156 3858.0156,788.875 3858.1875,788.6563 C3858.2969,788.5 3858.3281,788.3125 3858.3281,787.8906 L3858.3281,786.4688 C3858.3281,786.0313 3858.3125,785.9063 3858.2188,785.75 C3858.0625,785.4844 3857.7813,785.3438 3857.4844,785.3438 C3857.1875,785.3438 3856.9844,785.4375 3856.7656,785.75 L3856.5938,785.6719 Z " fill="#000000"/><text fill="#000000" font-family="sans-serif" font-size="14" lengthAdjust="spacing" textLength="66" x="3874.75" y="794.8467">IdleState</text><line style="stroke:#181818;stroke-width:0.5;" x1="3645.5" x2="4137.5" y1="806" y2="806"/><line style="stroke:#181818;stroke-width:0.5;" x1="3645.5" x2="4137.5" y1="814" y2="814"/><ellipse cx="3655.5" cy="827.6484" fill="#84BE84" rx="3" ry="3" style="stroke:#038048;stroke-width:1.0;"/><text fill="#000000" font-family="sans-serif" font-size="14" lengthAdjust="spacing" textLength="468" x="3664.5" y="830.9951">handleEvent(SchedulerStateMachine context, String event): void</text><ellipse cx="3655.5" cy="843.9453" fill="#84BE84" rx="3" ry="3" style="stroke:#038048;stroke-width:1.0;"/><text fill="#000000" font-family="sans-serif" font-size="14" lengthAdjust="spacing" textLength="139" x="3664.5" y="847.292">displayState(): void</text></g><!--class WaitingForArrivalSensorState--><g id="elem_WaitingForArrivalSensorState"><rect codeLine="142" fill="#F1F1F1" height="80.5938" id="WaitingForArrivalSensorState" rx="2.5" ry="2.5" style="stroke:#181818;stroke-width:0.5;" width="494" x="4173.5" y="774"/><ellipse cx="4309.75" cy="790" fill="#ADD1B2" rx="11" ry="11" style="stroke:#181818;stroke-width:1.0;"/><path d="M4312.0938,785.6719 C4311.1563,785.2344 4310.5625,785.0938 4309.6875,785.0938 C4307.0625,785.0938 4305.0625,787.1719 4305.0625,789.8906 L4305.0625,791.0156 C4305.0625,793.5938 4307.1719,795.4844 4310.0625,795.4844 C4311.2813,795.4844 4312.4375,795.1875 4313.1875,794.6406 C4313.7656,794.2344 4314.0938,793.7813 4314.0938,793.3906 C4314.0938,792.9375 4313.7031,792.5469 4313.2344,792.5469 C4313.0156,792.5469 4312.8125,792.625 4312.625,792.8125 C4312.1719,793.2969 4312.1719,793.2969 4311.9844,793.3906 C4311.5625,793.6563 4310.875,793.7813 4310.1094,793.7813 C4308.0625,793.7813 4306.7656,792.6875 4306.7656,790.9844 L4306.7656,789.8906 C4306.7656,788.1094 4308.0156,786.7969 4309.75,786.7969 C4310.3281,786.7969 4310.9375,786.9531 4311.4063,787.2031 C4311.8906,787.4844 4312.0625,787.7031 4312.1563,788.1094 C4312.2188,788.5156 4312.25,788.6406 4312.3906,788.7656 C4312.5313,788.9063 4312.7656,789.0156 4312.9844,789.0156 C4313.25,789.0156 4313.5156,788.875 4313.6875,788.6563 C4313.7969,788.5 4313.8281,788.3125 4313.8281,787.8906 L4313.8281,786.4688 C4313.8281,786.0313 4313.8125,785.9063 4313.7188,785.75 C4313.5625,785.4844 4313.2813,785.3438 4312.9844,785.3438 C4312.6875,785.3438 4312.4844,785.4375 4312.2656,785.75 L4312.0938,785.6719 Z " fill="#000000"/><text fill="#000000" font-family="sans-serif" font-size="14" lengthAdjust="spacing" textLength="213" x="4330.25" y="794.8467">WaitingForArrivalSensorState</text><line style="stroke:#181818;stroke-width:0.5;" x1="4174.5" x2="4666.5" y1="806" y2="806"/><line style="stroke:#181818;stroke-width:0.5;" x1="4174.5" x2="4666.5" y1="814" y2="814"/><ellipse cx="4184.5" cy="827.6484" fill="#84BE84" rx="3" ry="3" style="stroke:#038048;stroke-width:1.0;"/><text fill="#000000" font-family="sans-serif" font-size="14" lengthAdjust="spacing" textLength="468" x="4193.5" y="830.9951">handleEvent(SchedulerStateMachine context, String event): void</text><ellipse cx="4184.5" cy="843.9453" fill="#84BE84" rx="3" ry="3" style="stroke:#038048;stroke-width:1.0;"/><text fill="#000000" font-family="sans-serif" font-size="14" lengthAdjust="spacing" textLength="139" x="4193.5" y="847.292">displayState(): void</text></g><!--class WaitingForDestinationSensorState--><g id="elem_WaitingForDestinationSensorState"><rect codeLine="147" fill="#F1F1F1" height="80.5938" id="WaitingForDestinationSensorState" rx="2.5" ry="2.5" style="stroke:#181818;stroke-width:0.5;" width="494" x="5231.5" y="774"/><ellipse cx="5348.75" cy="790" fill="#ADD1B2" rx="11" ry="11" style="stroke:#181818;stroke-width:1.0;"/><path d="M5351.0938,785.6719 C5350.1563,785.2344 5349.5625,785.0938 5348.6875,785.0938 C5346.0625,785.0938 5344.0625,787.1719 5344.0625,789.8906 L5344.0625,791.0156 C5344.0625,793.5938 5346.1719,795.4844 5349.0625,795.4844 C5350.2813,795.4844 5351.4375,795.1875 5352.1875,794.6406 C5352.7656,794.2344 5353.0938,793.7813 5353.0938,793.3906 C5353.0938,792.9375 5352.7031,792.5469 5352.2344,792.5469 C5352.0156,792.5469 5351.8125,792.625 5351.625,792.8125 C5351.1719,793.2969 5351.1719,793.2969 5350.9844,793.3906 C5350.5625,793.6563 5349.875,793.7813 5349.1094,793.7813 C5347.0625,793.7813 5345.7656,792.6875 5345.7656,790.9844 L5345.7656,789.8906 C5345.7656,788.1094 5347.0156,786.7969 5348.75,786.7969 C5349.3281,786.7969 5349.9375,786.9531 5350.4063,787.2031 C5350.8906,787.4844 5351.0625,787.7031 5351.1563,788.1094 C5351.2188,788.5156 5351.25,788.6406 5351.3906,788.7656 C5351.5313,788.9063 5351.7656,789.0156 5351.9844,789.0156 C5352.25,789.0156 5352.5156,788.875 5352.6875,788.6563 C5352.7969,788.5 5352.8281,788.3125 5352.8281,787.8906 L5352.8281,786.4688 C5352.8281,786.0313 5352.8125,785.9063 5352.7188,785.75 C5352.5625,785.4844 5352.2813,785.3438 5351.9844,785.3438 C5351.6875,785.3438 5351.4844,785.4375 5351.2656,785.75 L5351.0938,785.6719 Z " fill="#000000"/><text fill="#000000" font-family="sans-serif" font-size="14" lengthAdjust="spacing" textLength="251" x="5369.25" y="794.8467">WaitingForDestinationSensorState</text><line style="stroke:#181818;stroke-width:0.5;" x1="5232.5" x2="5724.5" y1="806" y2="806"/><line style="stroke:#181818;stroke-width:0.5;" x1="5232.5" x2="5724.5" y1="814" y2="814"/><ellipse cx="5242.5" cy="827.6484" fill="#84BE84" rx="3" ry="3" style="stroke:#038048;stroke-width:1.0;"/><text fill="#000000" font-family="sans-serif" font-size="14" lengthAdjust="spacing" textLength="468" x="5251.5" y="830.9951">handleEvent(SchedulerStateMachine context, String event): void</text><ellipse cx="5242.5" cy="843.9453" fill="#84BE84" rx="3" ry="3" style="stroke:#038048;stroke-width:1.0;"/><text fill="#000000" font-family="sans-serif" font-size="14" lengthAdjust="spacing" textLength="139" x="5251.5" y="847.292">displayState(): void</text></g><!--class Runnable--><g id="elem_Runnable"><rect codeLine="165" fill="#F1F1F1" height="64.2969" id="Runnable" rx="2.5" ry="2.5" style="stroke:#181818;stroke-width:0.5;" width="100" x="782.5" y="535"/><ellipse cx="797.5" cy="551" fill="#B4A7E5" rx="11" ry="11" style="stroke:#181818;stroke-width:1.0;"/><path d="M798.4531,547.7813 L800.1719,547.7813 C800.5625,547.7813 800.75,547.75 800.875,547.6719 C801.1406,547.5156 801.2813,547.2344 801.2813,546.9375 C801.2813,546.6719 801.1719,546.4063 800.9375,546.2344 C800.7656,546.125 800.625,546.0938 800.1719,546.0938 L795.0313,546.0938 C794.5938,546.0938 794.4688,546.1094 794.3125,546.2031 C794.0625,546.3594 793.9063,546.6563 793.9063,546.9375 C793.9063,547.2188 794.0469,547.4688 794.2656,547.6406 C794.4219,547.75 794.6094,547.7813 795.0313,547.7813 L796.75,547.7813 L796.75,554.2969 L795.0313,554.2969 C794.5938,554.2969 794.4688,554.3125 794.3125,554.4219 C794.0625,554.5781 793.9063,554.8594 793.9063,555.1563 C793.9063,555.4063 794.0469,555.6719 794.2656,555.8281 C794.4219,555.9531 794.625,556 795.0313,556 L800.1719,556 C800.9219,556 801.2813,555.7188 801.2813,555.1563 C801.2813,554.875 801.1719,554.625 800.9375,554.4531 C800.7656,554.3281 800.625,554.2969 800.1719,554.2969 L798.4531,554.2969 L798.4531,547.7813 Z " fill="#000000"/><text fill="#000000" font-family="sans-serif" font-size="14" font-style="italic" lengthAdjust="spacing" textLength="68" x="811.5" y="555.8467">Runnable</text><line style="stroke:#181818;stroke-width:0.5;" x1="783.5" x2="881.5" y1="567" y2="567"/><line style="stroke:#181818;stroke-width:0.5;" x1="783.5" x2="881.5" y1="575" y2="575"/><ellipse cx="793.5" cy="588.6484" fill="#84BE84" rx="3" ry="3" style="stroke:#038048;stroke-width:1.0;"/><text fill="#000000" font-family="sans-serif" font-size="14" lengthAdjust="spacing" textLength="72" x="802.5" y="591.9951">run(): void</text></g><!--link ThreadMain to Synchronizer--><g id="link_ThreadMain_Synchronizer"><path codeLine="12" d="M690.807,55.355 C548.769,67.288 302.186,97.389 247.5,165 C192.998,232.384 207.012,283.372 247.5,360 C271.368,405.173 305.1921,438.8361 347.0631,468.5181 " fill="none" id="ThreadMain-to-Synchronizer" style="stroke:#181818;stroke-width:1.0;"/><polygon fill="#181818" points="351.958,471.988,346.929,463.5199,347.879,469.0964,342.3024,470.0464,351.958,471.988" style="stroke:#181818;stroke-width:1.0;"/><text fill="#000000" font-family="sans-serif" font-size="13" lengthAdjust="spacing" textLength="50" x="248.5" y="267.0669">initiates</text></g><!--link ThreadMain to FloorSubsystem--><g id="link_ThreadMain_FloorSubsystem"><path codeLine="13" d="M757.345,79.7 C727.269,106.393 687.1216,142.0233 647.1876,177.4643 " fill="none" id="ThreadMain-to-FloorSubsystem" style="stroke:#181818;stroke-width:1.0;"/><polygon fill="#181818" points="642.7,181.447,652.0865,178.4647,646.4396,178.1281,646.7762,172.4813,642.7,181.447" style="stroke:#181818;stroke-width:1.0;"/><text fill="#000000" font-family="sans-serif" font-size="13" lengthAdjust="spacing" textLength="83" x="709.5" y="131.0669">starts thread</text></g><!--link ThreadMain to ElevatorSubsystem--><g id="link_ThreadMain_ElevatorSubsystem"><path codeLine="14" d="M827.948,79.7 C853.614,102.291 885.2911,130.1718 920.2141,160.9098 " fill="none" id="ThreadMain-to-ElevatorSubsystem" style="stroke:#181818;stroke-width:1.0;"/><polygon fill="#181818" points="924.718,164.874,920.6049,155.9251,920.9647,161.5705,915.3193,161.9303,924.718,164.874" style="stroke:#181818;stroke-width:1.0;"/><text fill="#000000" font-family="sans-serif" font-size="13" lengthAdjust="spacing" textLength="83" x="886.5" y="131.0669">starts thread</text></g><!--link ThreadMain to SchedulerSubsystem--><g id="link_ThreadMain_SchedulerSubsystem"><path codeLine="15" d="M882.837,79.578 C892.471,82.565 902.16,85.433 911.5,88 C1065.5,130.326 1111.02,114.39 1262.5,165 C1283.51,172.021 1299.7148,178.1398 1320.8648,187.0938 " fill="none" id="ThreadMain-to-SchedulerSubsystem" style="stroke:#181818;stroke-width:1.0;"/><polygon fill="#181818" points="1326.39,189.433,1319.6616,182.2408,1321.7856,187.4837,1316.5427,189.6078,1326.39,189.433" style="stroke:#181818;stroke-width:1.0;"/><text fill="#000000" font-family="sans-serif" font-size="13" lengthAdjust="spacing" textLength="83" x="1150.5" y="131.0669">starts thread</text></g><!--reverse link ElevatorState to Idle--><g id="link_ElevatorState_Idle"><path d="M1902.2757,615.2889 C1998.8557,661.0619 2140.64,728.257 2237.15,773.9972 " fill="none" id="ElevatorState-backto-Idle" style="stroke:#181818;stroke-width:1.0;stroke-dasharray:7.0,7.0;"/><polygon fill="none" points="1886.01,607.58,1899.706,620.7108,1904.8453,609.867,1886.01,607.58" style="stroke:#181818;stroke-width:1.0;"/></g><!--reverse link ElevatorState to MovingUp--><g id="link_ElevatorState_MovingUp"><path d="M1802.5,625.717 C1802.5,671.45 1802.5,728.131 1802.5,773.8404 " fill="none" id="ElevatorState-backto-MovingUp" style="stroke:#181818;stroke-width:1.0;stroke-dasharray:7.0,7.0;"/><polygon fill="none" points="1802.5,607.717,1796.5,625.717,1808.5,625.717,1802.5,607.717" style="stroke:#181818;stroke-width:1.0;"/></g><!--reverse link ElevatorState to MovingDown--><g id="link_ElevatorState_MovingDown"><path d="M1699.9722,614.7869 C1632.1622,644.2639 1550.95,675.753 1461.5,697 C1364.32,720.083 1114.05,735.826 1014.5,744 C789.53,762.4735 731.979,750.292 507.5,774 C501.733,774.6091 495.897,775.2555 490.015,775.934 " fill="none" id="ElevatorState-backto-MovingDown" style="stroke:#181818;stroke-width:1.0;stroke-dasharray:7.0,7.0;"/><polygon fill="none" points="1716.48,607.611,1697.5803,609.2843,1702.3642,620.2895,1716.48,607.611" style="stroke:#181818;stroke-width:1.0;"/></g><!--reverse link ElevatorState to DoorsOpen--><g id="link_ElevatorState_DoorsOpen"><path d="M1706.0946,615.3124 C1618.3346,656.7694 1488.59,712.434 1355.5,744 C1212.2,777.987 1171.69,756.2234 1025.5,774 C1019.74,774.7 1013.92,775.4283 1008.04,776.1803 " fill="none" id="ElevatorState-backto-DoorsOpen" style="stroke:#181818;stroke-width:1.0;stroke-dasharray:7.0,7.0;"/><polygon fill="none" points="1722.37,607.624,1703.5318,609.8872,1708.6574,620.7375,1722.37,607.624" style="stroke:#181818;stroke-width:1.0;"/></g><!--reverse link ElevatorState to DoorsClosed--><g id="link_ElevatorState_DoorsClosed"><path d="M1986.7549,611.6625 C2179.8549,657.4215 2478.57,728.209 2671.7,773.974 " fill="none" id="ElevatorState-backto-DoorsClosed" style="stroke:#181818;stroke-width:1.0;stroke-dasharray:7.0,7.0;"/><polygon fill="none" points="1969.24,607.512,1985.3714,617.5008,1988.1384,605.8242,1969.24,607.512" style="stroke:#181818;stroke-width:1.0;"/></g><!--reverse link ElevatorState to Stopped--><g id="link_ElevatorState_Stopped"><path d="M1760.0891,621.7156 C1726.2591,662.4456 1679.73,710.479 1615.5,744 C1587.78,758.4674 1557.27,769.9231 1526.33,778.9943 " fill="none" id="ElevatorState-backto-Stopped" style="stroke:#181818;stroke-width:1.0;stroke-dasharray:7.0,7.0;"/><polygon fill="none" points="1771.59,607.869,1755.4736,617.882,1764.7046,625.5493,1771.59,607.869" style="stroke:#181818;stroke-width:1.0;"/></g><!--link ElevatorStateMachine to ElevatorState--><g id="link_ElevatorStateMachine_ElevatorState"><path codeLine="114" d="M1444.78,567 C1481.01,567 1514.97,567 1554.65,567 " fill="none" id="ElevatorStateMachine-to-ElevatorState" style="stroke:#181818;stroke-width:1.0;"/><polygon fill="#181818" points="1560.65,567,1551.65,563,1555.65,567,1551.65,571,1560.65,567" style="stroke:#181818;stroke-width:1.0;"/><text fill="#000000" font-family="sans-serif" font-size="13" lengthAdjust="spacing" textLength="80" x="1462.75" y="560.0669">currentState</text></g><!--link ElevatorStateMachine to Idle--><g id="link_ElevatorStateMachine_Idle"><path codeLine="115" d="M1362.29,607.516 C1409.54,636.842 1478.18,675.352 1543.5,697 C1653.97,733.61 1946.41,756.7612 2061.5,774 C2067.24,774.8591 2067.1066,774.8389 2072.9666,775.7195 " fill="none" id="ElevatorStateMachine-to-Idle" style="stroke:#181818;stroke-width:1.0;"/><polygon fill="#181818" points="2078.9,776.6111,2070.5943,771.3181,2073.9555,775.8681,2069.4055,779.2292,2078.9,776.6111" style="stroke:#181818;stroke-width:1.0;"/><text fill="#000000" font-family="sans-serif" font-size="13" lengthAdjust="spacing" textLength="54" x="1802.5" y="740.0669">contains</text><text fill="#000000" font-family="sans-serif" font-size="13" lengthAdjust="spacing" textLength="8" x="2062.8413" y="772.1975">1</text></g><!--link ElevatorStateMachine to MovingUp--><g id="link_ElevatorStateMachine_MovingUp"><path codeLine="116" d="M1365.99,607.598 C1428.16,645.425 1526.27,702.643 1615.5,744 C1638.28,754.56 1657.5532,762.5763 1681.5132,771.7058 " fill="none" id="ElevatorStateMachine-to-MovingUp" style="stroke:#181818;stroke-width:1.0;"/><polygon fill="#181818" points="1687.12,773.8422,1680.1341,766.8998,1682.4477,772.0619,1677.2856,774.3755,1687.12,773.8422" style="stroke:#181818;stroke-width:1.0;"/><text fill="#000000" font-family="sans-serif" font-size="13" lengthAdjust="spacing" textLength="54" x="1616.5" y="740.0669">contains</text><text fill="#000000" font-family="sans-serif" font-size="13" lengthAdjust="spacing" textLength="8" x="1659.3477" y="762.9776">1</text></g><!--link ElevatorStateMachine to MovingDown--><g id="link_ElevatorStateMachine_MovingDown"><path codeLine="117" d="M1265.85,607.758 C1235.78,637.624 1190.49,676.732 1142.5,697 C1077.03,724.651 577.916,764.3634 507.5,774 C501.754,774.7863 501.88,774.7598 496.015,775.5815 " fill="none" id="ElevatorStateMachine-to-MovingDown" style="stroke:#181818;stroke-width:1.0;"/><polygon fill="#181818" points="490.073,776.414,499.5409,779.1266,495.0246,775.7203,498.431,771.204,490.073,776.414" style="stroke:#181818;stroke-width:1.0;"/><text fill="#000000" font-family="sans-serif" font-size="13" lengthAdjust="spacing" textLength="54" x="960.5" y="740.0669">contains</text><text fill="#000000" font-family="sans-serif" font-size="13" lengthAdjust="spacing" textLength="8" x="498.1309" y="771.9939">1</text></g><!--link ElevatorStateMachine to DoorsOpen--><g id="link_ElevatorStateMachine_DoorsOpen"><path codeLine="118" d="M1262.18,607.787 C1231.56,636.092 1187.22,673.177 1142.5,697 C1080.38,730.096 1013.1525,753.7828 948.0795,772.2302 " fill="none" id="ElevatorStateMachine-to-DoorsOpen" style="stroke:#181818;stroke-width:1.0;"/><polygon fill="#181818" points="942.307,773.8666,952.0568,775.2603,947.1174,772.5029,949.8748,767.5636,942.307,773.8666" style="stroke:#181818;stroke-width:1.0;"/><text fill="#000000" font-family="sans-serif" font-size="13" lengthAdjust="spacing" textLength="54" x="1075.5" y="740.0669">contains</text><text fill="#000000" font-family="sans-serif" font-size="13" lengthAdjust="spacing" textLength="8" x="962.7625" y="763.006">1</text></g><!--link ElevatorStateMachine to DoorsClosed--><g id="link_ElevatorStateMachine_DoorsClosed"><path codeLine="119" d="M1359.93,607.656 C1406.99,637.887 1476.51,677.531 1543.5,697 C1598.92,713.106 2522.15,767.5056 2579.5,774 C2585.26,774.6526 2585.1337,774.6151 2591.0137,775.3288 " fill="none" id="ElevatorStateMachine-to-DoorsClosed" style="stroke:#181818;stroke-width:1.0;"/><polygon fill="#181818" points="2596.97,776.0518,2588.5175,770.9965,2592.0064,775.4493,2587.5536,778.9382,2596.97,776.0518" style="stroke:#181818;stroke-width:1.0;"/><text fill="#000000" font-family="sans-serif" font-size="13" lengthAdjust="spacing" textLength="54" x="2120.5" y="740.0669">contains</text><text fill="#000000" font-family="sans-serif" font-size="13" lengthAdjust="spacing" textLength="8" x="2580.9135" y="771.6199">1</text></g><!--link ElevatorStateMachine to Stopped--><g id="link_ElevatorStateMachine_Stopped"><path codeLine="120" d="M1299.59,607.717 C1296.23,653.45 1291.1986,722.147 1287.8486,767.8564 " fill="none" id="ElevatorStateMachine-to-Stopped" style="stroke:#181818;stroke-width:1.0;"/><polygon fill="#181818" points="1287.41,773.8404,1292.0571,765.1568,1287.7755,768.8538,1284.0785,764.5721,1287.41,773.8404" style="stroke:#181818;stroke-width:1.0;"/><text fill="#000000" font-family="sans-serif" font-size="13" lengthAdjust="spacing" textLength="54" x="1292.5" y="740.0669">contains</text><text fill="#000000" font-family="sans-serif" font-size="13" lengthAdjust="spacing" textLength="8" x="1279.2295" y="762.9755">1</text></g><!--reverse link SchedulerState to CommandCompleteState--><g id="link_SchedulerState_CommandCompleteState"><path d="M4321.7427,615.1156 C4231.5127,656.5566 4097.85,712.382 3961.5,744 C3816.31,777.6684 3775.49,756.3393 3627.5,774 C3621.61,774.7028 3615.65,775.4335 3609.64,776.1877 " fill="none" id="SchedulerState-backto-CommandCompleteState" style="stroke:#181818;stroke-width:1.0;stroke-dasharray:7.0,7.0;"/><polygon fill="none" points="4338.1,607.603,4319.2385,609.6632,4324.2469,620.568,4338.1,607.603" style="stroke:#181818;stroke-width:1.0;"/></g><!--reverse link SchedulerState to CommandSelectedState--><g id="link_SchedulerState_CommandSelectedState"><path d="M4522.1174,615.1573 C4620.7474,660.9303 4765.82,728.257 4864.38,773.9972 " fill="none" id="SchedulerState-backto-CommandSelectedState" style="stroke:#181818;stroke-width:1.0;stroke-dasharray:7.0,7.0;"/><polygon fill="none" points="4505.79,607.58,4519.5916,620.5998,4524.6432,609.7149,4505.79,607.58" style="stroke:#181818;stroke-width:1.0;"/></g><!--reverse link SchedulerState to IdleState--><g id="link_SchedulerState_IdleState"><path d="M4381.3602,621.9781 C4350.0702,662.8621 4306.65,710.857 4244.5,744 C4223.56,755.1683 4183.94,765.8308 4138.58,775.3035 " fill="none" id="SchedulerState-backto-IdleState" style="stroke:#181818;stroke-width:1.0;stroke-dasharray:7.0,7.0;"/><polygon fill="none" points="4392.3,607.684,4376.5955,618.3315,4386.1249,625.6247,4392.3,607.684" style="stroke:#181818;stroke-width:1.0;"/></g><!--reverse link SchedulerState to WaitingForArrivalSensorState--><g id="link_SchedulerState_WaitingForArrivalSensorState"><path d="M4420.5,625.717 C4420.5,671.45 4420.5,728.131 4420.5,773.8404 " fill="none" id="SchedulerState-backto-WaitingForArrivalSensorState" style="stroke:#181818;stroke-width:1.0;stroke-dasharray:7.0,7.0;"/><polygon fill="none" points="4420.5,607.717,4414.5,625.717,4426.5,625.717,4420.5,607.717" style="stroke:#181818;stroke-width:1.0;"/></g><!--reverse link SchedulerState to WaitingForDestinationSensorState--><g id="link_SchedulerState_WaitingForDestinationSensorState"><path d="M4608.3141,611.5807 C4805.5141,657.3397 5110.93,728.209 5308.16,773.974 " fill="none" id="SchedulerState-backto-WaitingForDestinationSensorState" style="stroke:#181818;stroke-width:1.0;stroke-dasharray:7.0,7.0;"/><polygon fill="none" points="4590.78,607.512,4606.9579,617.4254,4609.6704,605.736,4590.78,607.512" style="stroke:#181818;stroke-width:1.0;"/></g><!--link SchedulerStateMachine to SchedulerState--><g id="link_SchedulerStateMachine_SchedulerState"><path codeLine="157" d="M4057.3,567 C4093.71,567 4127.68,567 4167.38,567 " fill="none" id="SchedulerStateMachine-to-SchedulerState" style="stroke:#181818;stroke-width:1.0;"/><polygon fill="#181818" points="4173.38,567,4164.38,563,4168.38,567,4164.38,571,4173.38,567" style="stroke:#181818;stroke-width:1.0;"/><text fill="#000000" font-family="sans-serif" font-size="13" lengthAdjust="spacing" textLength="80" x="4075.25" y="560.0669">currentState</text></g><!--link SchedulerStateMachine to CommandCompleteState--><g id="link_SchedulerStateMachine_CommandCompleteState"><path codeLine="158" d="M3785.72,623.554 C3683.77,669.312 3547.1639,730.6202 3456.3739,771.3691 " fill="none" id="SchedulerStateMachine-to-CommandCompleteState" style="stroke:#181818;stroke-width:1.0;"/><polygon fill="#181818" points="3450.9,773.8259,3460.7488,773.7899,3455.4616,771.7785,3457.473,766.4913,3450.9,773.8259" style="stroke:#181818;stroke-width:1.0;"/><text fill="#000000" font-family="sans-serif" font-size="13" lengthAdjust="spacing" textLength="54" x="3555.5" y="740.0669">contains</text><text fill="#000000" font-family="sans-serif" font-size="13" lengthAdjust="spacing" textLength="8" x="3456.8788" y="762.9586">1</text></g><!--link SchedulerStateMachine to CommandSelectedState--><g id="link_SchedulerStateMachine_CommandSelectedState"><path codeLine="159" d="M3998.08,623.572 C4043.78,649.79 4101.38,679.166 4156.5,697 C4269.53,733.57 4567.98,756.6552 4685.5,774 C4691,774.812 4690.6347,774.7558 4696.2447,775.5864 " fill="none" id="SchedulerStateMachine-to-CommandSelectedState" style="stroke:#181818;stroke-width:1.0;"/><polygon fill="#181818" points="4702.18,776.4652,4693.8629,771.1902,4697.2339,775.7329,4692.6912,779.1039,4702.18,776.4652" style="stroke:#181818;stroke-width:1.0;"/><text fill="#000000" font-family="sans-serif" font-size="13" lengthAdjust="spacing" textLength="54" x="4419.5" y="740.0669">contains</text><text fill="#000000" font-family="sans-serif" font-size="13" lengthAdjust="spacing" textLength="8" x="4686.7189" y="772.1883">1</text></g><!--link SchedulerStateMachine to IdleState--><g id="link_SchedulerStateMachine_IdleState"><path codeLine="160" d="M3905.42,623.708 C3902.07,669.403 3897.838,726.994 3894.858,767.7032 " fill="none" id="SchedulerStateMachine-to-IdleState" style="stroke:#181818;stroke-width:1.0;"/><polygon fill="#181818" points="3894.42,773.6872,3899.0664,765.0032,3894.785,768.7005,3891.0877,764.4192,3894.42,773.6872" style="stroke:#181818;stroke-width:1.0;"/><text fill="#000000" font-family="sans-serif" font-size="13" lengthAdjust="spacing" textLength="54" x="3898.5" y="740.0669">contains</text><text fill="#000000" font-family="sans-serif" font-size="13" lengthAdjust="spacing" textLength="8" x="3886.2411" y="762.7969">1</text></g><!--link SchedulerStateMachine to WaitingForArrivalSensorState--><g id="link_SchedulerStateMachine_WaitingForArrivalSensorState"><path codeLine="161" d="M4002.38,623.54 C4065.72,660.217 4152.18,707.975 4231.5,744 C4254.74,754.553 4274.4744,762.626 4298.8444,771.7959 " fill="none" id="SchedulerStateMachine-to-WaitingForArrivalSensorState" style="stroke:#181818;stroke-width:1.0;"/><polygon fill="#181818" points="4304.46,773.9089,4297.4453,766.9956,4299.7803,772.148,4294.6279,774.4831,4304.46,773.9089" style="stroke:#181818;stroke-width:1.0;"/><text fill="#000000" font-family="sans-serif" font-size="13" lengthAdjust="spacing" textLength="54" x="4232.5" y="740.0669">contains</text><text fill="#000000" font-family="sans-serif" font-size="13" lengthAdjust="spacing" textLength="8" x="4276.5784" y="763.0553">1</text></g><!--link SchedulerStateMachine to WaitingForDestinationSensorState--><g id="link_SchedulerStateMachine_WaitingForDestinationSensorState"><path codeLine="162" d="M3994.73,623.6 C4040.73,650.684 4099.61,680.828 4156.5,697 C4213.19,713.115 5155.93,767.4961 5214.5,774 C5220.03,774.6137 5219.6618,774.5495 5225.2918,775.2177 " fill="none" id="SchedulerStateMachine-to-WaitingForDestinationSensorState" style="stroke:#181818;stroke-width:1.0;"/><polygon fill="#181818" points="5231.25,775.9249,5222.7842,770.8921,5226.2848,775.3356,5221.8413,778.8363,5231.25,775.9249" style="stroke:#181818;stroke-width:1.0;"/><text fill="#000000" font-family="sans-serif" font-size="13" lengthAdjust="spacing" textLength="54" x="4745.5" y="740.0669">contains</text><text fill="#000000" font-family="sans-serif" font-size="13" lengthAdjust="spacing" textLength="8" x="5215.791" y="771.6319">1</text></g><!--link FloorSubsystem to Runnable--><g id="link_FloorSubsystem_Runnable"><path codeLine="171" d="M715.014,343.66 C733.601,357.355 751.035,372.802 765.5,390 C801.487,432.786 815.6373,479.3149 823.4933,517.2009 " fill="none" id="FloorSubsystem-to-Runnable" style="stroke:#181818;stroke-width:1.0;stroke-dasharray:7.0,7.0;"/><polygon fill="none" points="827.148,534.826,829.3683,515.9827,817.6183,518.4192,827.148,534.826" style="stroke:#181818;stroke-width:1.0;"/></g><!--link ElevatorSubsystem to Runnable--><g id="link_ElevatorSubsystem_Runnable"><path codeLine="172" d="M873.879,360.169 C865.419,369.436 857.82,379.379 851.5,390 C824.784,434.899 823.5926,479.8484 826.8676,517.0284 " fill="none" id="ElevatorSubsystem-to-Runnable" style="stroke:#181818;stroke-width:1.0;stroke-dasharray:7.0,7.0;"/><polygon fill="none" points="828.447,534.959,832.8444,516.502,820.8907,517.5549,828.447,534.959" style="stroke:#181818;stroke-width:1.0;"/></g><!--link SchedulerSubsystem to Runnable--><g id="link_SchedulerSubsystem_Runnable"><path codeLine="173" d="M1326.72,335.569 C1305.47,344.55 1283.63,353.015 1262.5,360 C1223.46,372.907 933.295,412.191 900.5,437 C868.397,461.285 855.3482,487.9977 845.9712,517.7647 " fill="none" id="SchedulerSubsystem-to-Runnable" style="stroke:#181818;stroke-width:1.0;stroke-dasharray:7.0,7.0;"/><polygon fill="none" points="840.563,534.933,851.694,519.5674,840.2485,515.9619,840.563,534.933" style="stroke:#181818;stroke-width:1.0;"/></g><!--reverse link FloorSubsystem to Synchronizer--><g id="link_FloorSubsystem_Synchronizer"><path codeLine="175" d="M551.585,355.7694 C551.302,384.3004 551.095,405.189 550.782,436.768 " fill="none" id="FloorSubsystem-backto-Synchronizer" style="stroke:#181818;stroke-width:1.0;"/><polygon fill="none" points="551.704,343.77,547.6447,349.73,551.585,355.7694,555.6443,349.8094,551.704,343.77" style="stroke:#181818;stroke-width:1.0;"/><text fill="#000000" font-family="sans-serif" font-size="13" lengthAdjust="spacing" textLength="82" x="552.5" y="403.0669">synchronizer</text></g><!--reverse link ElevatorSubsystem to Synchronizer--><g id="link_ElevatorSubsystem_Synchronizer"><path codeLine="176" d="M812.418,358.1885 C781.832,372.3385 766.523,380.402 751.5,390 C729.746,403.899 707.93,420.043 687.102,436.807 " fill="none" id="ElevatorSubsystem-backto-Synchronizer" style="stroke:#181818;stroke-width:1.0;"/><polygon fill="none" points="823.309,353.15,816.184,352.0389,812.418,358.1885,819.543,359.2996,823.309,353.15" style="stroke:#181818;stroke-width:1.0;"/><text fill="#000000" font-family="sans-serif" font-size="13" lengthAdjust="spacing" textLength="82" x="752.5" y="403.0669">synchronizer</text></g><!--reverse link SchedulerSubsystem to Synchronizer--><g id="link_SchedulerSubsystem_Synchronizer"><path codeLine="177" d="M1322.1297,340.1932 C1298.9797,349.7602 1285.96,353.803 1262.5,360 C1114.98,398.964 1070.34,361.174 920.5,390 C884.946,396.84 797.61,422.352 764.5,437 C758.728,439.554 752.92,442.232 747.099,445.012 " fill="none" id="SchedulerSubsystem-backto-Synchronizer" style="stroke:#181818;stroke-width:1.0;"/><polygon fill="none" points="1333.22,335.61,1326.1471,334.2048,1322.1297,340.1932,1329.2026,341.5984,1333.22,335.61" style="stroke:#181818;stroke-width:1.0;"/><text fill="#000000" font-family="sans-serif" font-size="13" lengthAdjust="spacing" textLength="82" x="921.5" y="403.0669">synchronizer</text></g><!--reverse link SchedulerSubsystem to SchedulerStateMachine--><g id="link_SchedulerSubsystem_SchedulerStateMachine"><path codeLine="179" d="M1678.0885,288.9048 C2149.4885,347.4438 3341.14,495.422 3761.73,547.65 " fill="none" id="SchedulerSubsystem-backto-SchedulerStateMachine" style="stroke:#181818;stroke-width:1.0;"/><polygon fill="none" points="1666.18,287.426,1671.6413,292.1349,1678.0885,288.9048,1672.6272,284.1959,1666.18,287.426" style="stroke:#181818;stroke-width:1.0;"/><text fill="#000000" font-family="sans-serif" font-size="13" lengthAdjust="spacing" textLength="85" x="2619.5" y="403.0669">stateMachine</text></g><!--reverse link ElevatorSubsystem to ElevatorStateMachine--><g id="link_ElevatorSubsystem_ElevatorStateMachine"><path codeLine="180" d="M1127.988,369.0267 C1177.778,425.2217 1229.92,484.078 1267.18,526.136 " fill="none" id="ElevatorSubsystem-backto-ElevatorStateMachine" style="stroke:#181818;stroke-width:1.0;"/><polygon fill="none" points="1120.03,360.045,1121.0151,367.1885,1127.988,369.0267,1127.0029,361.8832,1120.03,360.045" style="stroke:#181818;stroke-width:1.0;"/><text fill="#000000" font-family="sans-serif" font-size="13" lengthAdjust="spacing" textLength="139" x="1161.5" y="403.0669">elevatorStateMachine</text></g><!--link SchedulerSubsystem to FloorData--><g id="link_SchedulerSubsystem_FloorData"><path codeLine="182" d="M1407.79,335.663 C1379.97,362.028 1345.64,389.618 1309.5,407 C1241.54,439.685 1208.77,401.008 1142.5,437 C1110.12,454.587 1085.2802,479.3635 1064.0202,505.6835 " fill="none" id="SchedulerSubsystem-to-FloorData" style="stroke:#181818;stroke-width:1.0;"/><polygon fill="#181818" points="1060.25,510.351,1069.017,505.8632,1063.3918,506.4614,1062.7936,500.8363,1060.25,510.351" style="stroke:#181818;stroke-width:1.0;"/></g><!--link ElevatorSubsystem to FloorData--><g id="link_ElevatorSubsystem_FloorData"><path codeLine="183" d="M1030.35,360.045 C1028.22,409.669 1025.9583,462.3796 1024.1483,504.3916 " fill="none" id="ElevatorSubsystem-to-FloorData" style="stroke:#181818;stroke-width:1.0;"/><polygon fill="#181818" points="1023.89,510.386,1028.2737,501.5665,1024.1052,505.3906,1020.2811,501.2222,1023.89,510.386" style="stroke:#181818;stroke-width:1.0;"/></g><!--link FloorSubsystem to FloorData--><g id="link_FloorSubsystem_FloorData"><path codeLine="184" d="M752.292,343.614 C770.147,349.583 788.062,355.154 805.5,360 C878.157,380.192 916.736,339.235 972.5,390 C1005.805,420.32 1016.6952,465.1798 1020.2752,504.4418 " fill="none" id="FloorSubsystem-to-FloorData" style="stroke:#181818;stroke-width:1.0;"/><polygon fill="#181818" points="1020.82,510.417,1023.9862,501.091,1020.366,505.4377,1016.0193,501.8174,1020.82,510.417" style="stroke:#181818;stroke-width:1.0;"/></g><!--SRC=[pLXBRzim3BxxLmWx9MXTO5UZ230q3L1WIRUcHG_33ehD9W9ioPFah5st_pv9VaIIbTTsI2vnOl4ZAV8Z9IRDiH1eaZF6nrXYz1uX5ACN_NjM5GlW2I9KcfSPuP1AmcY2nktNMreLzI88IIZMxuoo3KoI0XAKCxgC_aHHQkmzhZZWR8e9DGOl2lLjWFbI96WkEQ7BRz-72LepaccC9Hrdx2UDHsZ-HjCLPvJy0ewqBI89bY12iiQVURKGRq92eQI5n5mA98re276RmnhB8q7pT0LPbSCEL0GgN6xmpFwVlgYFyVtpJEss3f2pFvEJjE8Sg7I3Q_9qmue2q-nh1PKAj7bSTmaTQJ7HkhPVrChZ7AZGjXQCvO2fpXFEiebbSf3MpsH3e3PjIdW9SWQlqW4CBT56uTnpxY2bFP2lU8M5RLXe0MiZQjbNuOi8a6C_60E5-yGvMKFMoRhEzI6kLYLoOsLIh-fSTfNXaTMaNbXaI1ng60wG76POrrXTEjgAgsMmNS4byk73najRIdlfcTKYamPgbZlR9UO2xcXPoG7Hdvy9tIZtiiGhEh0AlU5-lv1wOK3zEAXIap35wKhPqykT5kjzf8tszGzsg1vsVg8kqN79MGf2FC2FIkLRE6iP4IMMwUgHjMsaPJIoAOssRzlUIDsFpTvKSvpYyhgEvAKdRueNDKt2lF53qFMMVdVRtc2WbRLyIZOQxD3k8-f5p-uENWvzTco2VaYRY0ksXaTMbrZmQBf4k3dBEcQss2LxAiCWHsYislvkCPNQIFq4_e9JS8DM7tihvNyEjsiLza4efYXb2lwgdAsTHA15hOQZkPRZDuFf5zATKev8KUPGA9WuWGTJjbQWf_8SlD3vEgqVOqKGSL_2ERXnapC1sMaTcKjMbgTs8gZolJjGlARhI8-ijjcqN6TT6mcgZpbPhgHzqJJRJPp-lGNQt3O_VFnGrtTYzgykec8_e2l7uq6cUew1RSX-DAhXvZ6ubaeMncgzxa7OfrNuwFq_NZN7b7eeSakeBLjCFw5FStMgfnAoi_19a_Wi77d6QeQaomdZveQFy_h-VcQ-zUQBi_1lnztrmAlhdfjh5BRGDL9lqrudtGAs-aUmMgrcSh06jxQEqh2fXADWEtdxZvgsiCpkhbPxVQWenOkyuPetqqMHDz9UNVqUTP2eFuouwu5Xq1NmrRCuzlyTiiUCWC5zY80B-o1RCS4S9CYUNRTu63m24nGQq8BcOvLaP4tVVIkrX2NYHTRJy1S0]--></g></svg>